<svg id="Logo" xmlns="http://www.w3.org/2000/svg" xmlns:xlink="http://www.w3.org/1999/xlink" viewBox="0 0 544.131 135.411"><defs><style>.cls-1{fill:url(#linear-gradient);}.cls-2{fill:url(#New_Gradient_Swatch_2);}.cls-3{fill:url(#linear-gradient-2);}</style><linearGradient id="linear-gradient" x1="64.33" y1="123.939" x2="64.33" y2="2.8" gradientUnits="userSpaceOnUse"><stop offset="0" stop-color="#04f"/><stop offset="1" stop-color="#3cf"/></linearGradient><radialGradient id="New_Gradient_Swatch_2" cx="187.559" cy="277.168" r="63.625" gradientUnits="userSpaceOnUse"><stop offset="0.95" stop-color="#f2f2f2"/><stop offset="1" stop-color="#cccbcb"/></radialGradient><linearGradient id="linear-gradient-2" x1="187.912" y1="303.923" x2="187.912" y2="250.158" gradientUnits="userSpaceOnUse"><stop offset="0"/><stop offset="1" stop-color="#555"/></linearGradient></defs><path d="M324.545,316.4a2.1,2.1,0,0,1-.329,1.17,2.4,2.4,0,0,1-1.259.84,11.787,11.787,0,0,1-2.549.509,38.058,38.058,0,0,1-4.079.181,36.515,36.515,0,0,1-5.609-.3,5.546,5.546,0,0,1-2.459-.9,4.224,4.224,0,0,1-1.169-1.439l-23.453-36.828v36.828a1.846,1.846,0,0,1-.36,1.14,2.676,2.676,0,0,1-1.259.81,10.933,10.933,0,0,1-2.4.509,40.5,40.5,0,0,1-7.649,0,10.956,10.956,0,0,1-2.428-.509,2.9,2.9,0,0,1-1.29-.81,1.746,1.746,0,0,1-.39-1.14V243.339a1.746,1.746,0,0,1,.39-1.14,2.731,2.731,0,0,1,1.29-.779,12.653,12.653,0,0,1,2.428-.482,41.175,41.175,0,0,1,7.649,0,12.65,12.65,0,0,1,2.4.482,2.525,2.525,0,0,1,1.259.779,1.846,1.846,0,0,1,.36,1.14v33.048L306.372,243.4a4.057,4.057,0,0,1,2.579-2.1,11.575,11.575,0,0,1,2.459-.42q1.5-.12,3.84-.119a35.948,35.948,0,0,1,3.957.178,11.8,11.8,0,0,1,2.489.511,2.707,2.707,0,0,1,1.29.809,1.761,1.761,0,0,1,.361,1.081,4.67,4.67,0,0,1-.541,2.1q-.54,1.079-2.038,3.419l-21.293,27.89,23.212,35.089a27.836,27.836,0,0,1,1.59,3.27A4.389,4.389,0,0,1,324.545,316.4Z" transform="translate(-123.934 -213.543)"/><path d="M378.79,288.385a5.822,5.822,0,0,1-1.23,4.078,4.405,4.405,0,0,1-3.389,1.319H341.6a22.237,22.237,0,0,0,.81,6.209,11.838,11.838,0,0,0,2.579,4.738,11.217,11.217,0,0,0,4.559,2.969,19.5,19.5,0,0,0,6.687,1.02,37.617,37.617,0,0,0,6.958-.57,46.24,46.24,0,0,0,5.189-1.26q2.189-.689,3.628-1.26a6.758,6.758,0,0,1,2.34-.569,1.767,1.767,0,0,1,.9.209,1.569,1.569,0,0,1,.6.75,5.051,5.051,0,0,1,.329,1.53c.061.659.09,1.49.09,2.488q0,1.321-.06,2.25a14.376,14.376,0,0,1-.179,1.59,3.912,3.912,0,0,1-.36,1.11,4.167,4.167,0,0,1-.631.87A7.267,7.267,0,0,1,372.912,317a33.8,33.8,0,0,1-4.439,1.41,61.373,61.373,0,0,1-6.178,1.2,51.48,51.48,0,0,1-7.438.511,39.389,39.389,0,0,1-12.506-1.8,22.254,22.254,0,0,1-8.967-5.459,22.694,22.694,0,0,1-5.369-9.237,43.389,43.389,0,0,1-1.769-13.076,41.585,41.585,0,0,1,1.859-12.866,26.971,26.971,0,0,1,5.4-9.716,23.211,23.211,0,0,1,8.608-6.088,29.6,29.6,0,0,1,11.426-2.1,29.956,29.956,0,0,1,11.486,1.978,20.742,20.742,0,0,1,7.827,5.488,22.126,22.126,0,0,1,4.5,8.309,36.161,36.161,0,0,1,1.441,10.435Zm-14.635-4.32q.179-6.357-2.55-9.987t-8.428-3.628a10.95,10.95,0,0,0-5.008,1.079,10.255,10.255,0,0,0-3.539,2.91,13.261,13.261,0,0,0-2.16,4.318,21.566,21.566,0,0,0-.869,5.308Z" transform="translate(-123.934 -213.543)"/><path d="M418.37,318.734l-6.478,18.954q-.54,1.5-2.939,2.159a36.813,36.813,0,0,1-10.858.451,5.374,5.374,0,0,1-2.158-.69,1.58,1.58,0,0,1-.78-1.2,3.856,3.856,0,0,1,.359-1.739l7.138-17.935a4.073,4.073,0,0,1-1.409-1.11,5.154,5.154,0,0,1-.93-1.588L381.9,266.851a10.119,10.119,0,0,1-.78-3.21,2.194,2.194,0,0,1,.719-1.739,4.743,4.743,0,0,1,2.43-.869,34.135,34.135,0,0,1,4.529-.241q2.577,0,4.079.09a7.235,7.235,0,0,1,2.338.451,2.543,2.543,0,0,1,1.26,1.11,11.185,11.185,0,0,1,.84,2.128l12.6,35.809h.18l11.516-36.528a4.072,4.072,0,0,1,.929-2.069,3.912,3.912,0,0,1,1.891-.75,29.927,29.927,0,0,1,4.618-.241,31.858,31.858,0,0,1,4.288.241,5.127,5.127,0,0,1,2.519.9,2.166,2.166,0,0,1,.81,1.77,8.783,8.783,0,0,1-.478,2.608Z" transform="translate(-123.934 -213.543)"/><path d="M490.972,295.462a24.006,24.006,0,0,1-2.279,10.736,22.26,22.26,0,0,1-6.179,7.708,26.934,26.934,0,0,1-9.118,4.648,38.765,38.765,0,0,1-11.157,1.561,39.809,39.809,0,0,1-7.465-.66,42.467,42.467,0,0,1-6.09-1.59,26.523,26.523,0,0,1-4.409-1.95,12.764,12.764,0,0,1-2.55-1.8,4.507,4.507,0,0,1-1.108-2.248,20.541,20.541,0,0,1-.33-4.229q0-1.858.121-3.12a8.963,8.963,0,0,1,.389-2.038,2.238,2.238,0,0,1,.72-1.111,1.729,1.729,0,0,1,1.05-.329,4.978,4.978,0,0,1,2.369.989,41.484,41.484,0,0,0,3.928,2.19,35.47,35.47,0,0,0,5.73,2.189,27.085,27.085,0,0,0,7.707.99,17.761,17.761,0,0,0,5.158-.69,11.525,11.525,0,0,0,3.869-1.949,8.284,8.284,0,0,0,2.429-3.119,9.936,9.936,0,0,0,.838-4.138,7.251,7.251,0,0,0-1.438-4.529,14.3,14.3,0,0,0-3.748-3.359,39,39,0,0,0-5.251-2.759q-2.937-1.29-6.055-2.729a55.082,55.082,0,0,1-6.059-3.27,24.386,24.386,0,0,1-5.248-4.379,20.56,20.56,0,0,1-3.751-6.027,21.78,21.78,0,0,1-1.438-8.338,22.076,22.076,0,0,1,2.068-9.807,20.093,20.093,0,0,1,5.581-7.018,23.743,23.743,0,0,1,8.275-4.168,36.232,36.232,0,0,1,10.108-1.379,36.765,36.765,0,0,1,5.518.419,37.764,37.764,0,0,1,5.158,1.14,28.744,28.744,0,0,1,4.258,1.619,9.941,9.941,0,0,1,2.459,1.5,4.35,4.35,0,0,1,.811,1.02,4.923,4.923,0,0,1,.36,1.109,12.055,12.055,0,0,1,.211,1.74q.058,1.048.059,2.609,0,1.74-.09,2.939a10.834,10.834,0,0,1-.3,1.979,2.371,2.371,0,0,1-.6,1.14,1.489,1.489,0,0,1-1.049.36,5.009,5.009,0,0,1-2.1-.84q-1.44-.84-3.54-1.829a33.623,33.623,0,0,0-4.857-1.8,21.429,21.429,0,0,0-6.059-.811,14.431,14.431,0,0,0-4.5.631,9.263,9.263,0,0,0-3.208,1.739,6.853,6.853,0,0,0-1.919,2.669,8.732,8.732,0,0,0-.631,3.3,7.265,7.265,0,0,0,1.41,4.469,13.508,13.508,0,0,0,3.779,3.358,40.236,40.236,0,0,0,5.369,2.759q3,1.291,6.118,2.73a60.4,60.4,0,0,1,6.117,3.268,24.594,24.594,0,0,1,5.338,4.38,20.428,20.428,0,0,1,3.78,6A21.014,21.014,0,0,1,490.972,295.462Z" transform="translate(-123.934 -213.543)"/><path d="M550.493,316.7a1.638,1.638,0,0,1-.36,1.049,2.648,2.648,0,0,1-1.2.749,10.142,10.142,0,0,1-2.307.45c-.982.1-2.189.151-3.63.151q-2.22,0-3.689-.151a10.13,10.13,0,0,1-2.308-.45,2.633,2.633,0,0,1-1.2-.749,1.638,1.638,0,0,1-.36-1.049V286.164a25.747,25.747,0,0,0-.569-6.117,12.045,12.045,0,0,0-1.649-3.809,7.349,7.349,0,0,0-2.788-2.459,8.692,8.692,0,0,0-3.991-.87,10,10,0,0,0-5.819,2.1,31.5,31.5,0,0,0-6.117,6.118V316.7a1.622,1.622,0,0,1-.361,1.049,2.634,2.634,0,0,1-1.229.749,10.622,10.622,0,0,1-2.308.45,44.42,44.42,0,0,1-7.319,0,10.586,10.586,0,0,1-2.307-.45,2.617,2.617,0,0,1-1.23-.749,1.621,1.621,0,0,1-.36-1.049V237.821a1.748,1.748,0,0,1,.36-1.081,2.674,2.674,0,0,1,1.23-.809,10.343,10.343,0,0,1,2.307-.511,37.707,37.707,0,0,1,7.319,0,10.38,10.38,0,0,1,2.308.511,2.692,2.692,0,0,1,1.229.809,1.749,1.749,0,0,1,.361,1.081v29.57a28.863,28.863,0,0,1,7.949-5.728,19.692,19.692,0,0,1,8.425-1.889,21.17,21.17,0,0,1,9.207,1.8,16,16,0,0,1,6.059,4.918,20.163,20.163,0,0,1,3.329,7.288,43.072,43.072,0,0,1,1.021,10.106Z" transform="translate(-123.934 -213.543)"/><path d="M616.216,289.4a40.934,40.934,0,0,1-1.8,12.477,26.322,26.322,0,0,1-5.459,9.717,24.266,24.266,0,0,1-9.177,6.3,34.433,34.433,0,0,1-12.9,2.221,35.3,35.3,0,0,1-12.415-1.98,22.309,22.309,0,0,1-8.757-5.759,23.585,23.585,0,0,1-5.158-9.3,43.249,43.249,0,0,1-1.68-12.6,40.513,40.513,0,0,1,1.829-12.507,26.3,26.3,0,0,1,5.487-9.716,24.518,24.518,0,0,1,9.148-6.269,34.212,34.212,0,0,1,12.866-2.218,36.071,36.071,0,0,1,12.477,1.948,21.836,21.836,0,0,1,8.726,5.728,23.9,23.9,0,0,1,5.13,9.3A43.613,43.613,0,0,1,616.216,289.4Zm-15.533.6a39.25,39.25,0,0,0-.631-7.288,17.146,17.146,0,0,0-2.13-5.788,10.655,10.655,0,0,0-3.987-3.839,12.819,12.819,0,0,0-6.27-1.38,13.262,13.262,0,0,0-5.878,1.23,10.557,10.557,0,0,0-4.139,3.6,17.281,17.281,0,0,0-2.429,5.7,32.22,32.22,0,0,0-.81,7.588,37.357,37.357,0,0,0,.661,7.287,17.952,17.952,0,0,0,2.13,5.788,10.136,10.136,0,0,0,3.988,3.809,13.085,13.085,0,0,0,6.238,1.35,13.4,13.4,0,0,0,5.938-1.229,10.635,10.635,0,0,0,4.139-3.57,16.44,16.44,0,0,0,2.4-5.667A33.529,33.529,0,0,0,600.683,290Z" transform="translate(-123.934 -213.543)"/><path d="M656.874,311.417a18.891,18.891,0,0,1-.329,4.049,4.34,4.34,0,0,1-.869,1.978,4.7,4.7,0,0,1-1.59,1.02,14.926,14.926,0,0,1-2.46.78,26.008,26.008,0,0,1-3.058.51,30.679,30.679,0,0,1-3.329.181,23.968,23.968,0,0,1-7.8-1.14,12.96,12.96,0,0,1-5.459-3.509,14.612,14.612,0,0,1-3.177-5.969,31.4,31.4,0,0,1-1.021-8.517V273.389h-6.416q-1.144,0-1.742-1.41a13.15,13.15,0,0,1-.6-4.708,23.794,23.794,0,0,1,.152-2.939,7.009,7.009,0,0,1,.447-1.889,2.2,2.2,0,0,1,.752-.991,1.842,1.842,0,0,1,1.049-.3h6.357V249.217a1.852,1.852,0,0,1,.332-1.08,2.448,2.448,0,0,1,1.2-.809,9.5,9.5,0,0,1,2.338-.48q1.468-.15,3.63-.151,2.215,0,3.689.151a9.036,9.036,0,0,1,2.308.48,2.693,2.693,0,0,1,1.2.809,1.763,1.763,0,0,1,.36,1.08v11.936h11.636a1.85,1.85,0,0,1,1.05.3,2.221,2.221,0,0,1,.748.991,7.111,7.111,0,0,1,.45,1.889,24.472,24.472,0,0,1,.149,2.939,13.127,13.127,0,0,1-.6,4.708q-.6,1.41-1.739,1.41H642.841V298.52q0,4.38,1.379,6.568t4.919,2.189a10.127,10.127,0,0,0,2.158-.209,13.867,13.867,0,0,0,1.711-.48c.5-.18.917-.339,1.258-.48a2.485,2.485,0,0,1,.931-.209,1.281,1.281,0,0,1,.69.209,1.427,1.427,0,0,1,.509.84,13.5,13.5,0,0,1,.329,1.71A20.923,20.923,0,0,1,656.874,311.417Z" transform="translate(-123.934 -213.543)"/><path d="M656.874,246.032a5.608,5.608,0,1,1,5.6,5.969A5.685,5.685,0,0,1,656.874,246.032Zm10.321,0a4.749,4.749,0,1,0-9.45,0,4.743,4.743,0,1,0,9.45,0Zm-6.777-3.357h2.052c1.181,0,2.363.435,2.363,1.989a1.833,1.833,0,0,1-1.244,1.741l1.554,2.736h-1.056l-1.244-2.425h-1.554v2.425h-.871Zm1.8,3.232c1,0,1.679-.31,1.679-1.181,0-.746-.373-1.243-1.554-1.243h-1.057v2.424Z" transform="translate(-123.934 -213.543)"/><circle class="cls-1" cx="64.33" cy="63.37" r="60.57"/><path class="cls-2" d="M187.559,213.543a63.625,63.625,0,1,0,63.626,63.625A63.625,63.625,0,0,0,187.559,213.543Zm30.109,13.8a55.555,55.555,0,0,1,20.067,20.149,56.633,56.633,0,0,1,7.209,19.405,4.614,4.614,0,0,1-1.211,4.308,98.075,98.075,0,0,1-23.055,19.238,1.029,1.029,0,0,1-1.526-1.145,99.685,99.685,0,0,0-2.975-60.712A1.028,1.028,0,0,1,217.668,227.34Zm-57.92-.919a55.555,55.555,0,0,1,27.483-7.3,56.632,56.632,0,0,1,20.41,3.459,4.613,4.613,0,0,1,3.125,3.2,98.049,98.049,0,0,1,5.133,29.585,1.028,1.028,0,0,1-1.754.749,99.687,99.687,0,0,0-54.065-27.779A1.028,1.028,0,0,1,159.748,226.421Zm-29.756,49.7a55.56,55.56,0,0,1,7.417-27.453,56.6,56.6,0,0,1,13.2-15.945,4.613,4.613,0,0,1,4.336-1.105,98.058,98.058,0,0,1,28.188,10.346,1.029,1.029,0,0,1-.228,1.9,99.687,99.687,0,0,0-51.09,32.932A1.029,1.029,0,0,1,129.992,276.121Zm28.164,50.62a55.571,55.571,0,0,1-20.067-20.149,56.648,56.648,0,0,1-7.209-19.4,4.614,4.614,0,0,1,1.212-4.308,98.045,98.045,0,0,1,23.054-19.238,1.028,1.028,0,0,1,1.526,1.145,99.7,99.7,0,0,0,2.975,60.711A1.028,1.028,0,0,1,158.156,326.741Zm57.92.919a55.563,55.563,0,0,1-27.483,7.3,56.623,56.623,0,0,1-20.409-3.459,4.618,4.618,0,0,1-3.126-3.2,98.08,98.08,0,0,1-5.133-29.585,1.029,1.029,0,0,1,1.755-.749,99.69,99.69,0,0,0,54.065,27.779A1.028,1.028,0,0,1,216.076,327.66Zm9.139-6.3a4.615,4.615,0,0,1-4.336,1.105,98.087,98.087,0,0,1-28.188-10.346,1.029,1.029,0,0,1,.229-1.9,99.684,99.684,0,0,0,51.089-32.932,1.029,1.029,0,0,1,1.823.67,55.553,55.553,0,0,1-7.417,27.453A56.6,56.6,0,0,1,225.215,321.358Z" transform="translate(-123.934 -213.543)"/><path class="cls-3" d="M195.3,251.09a4.615,4.615,0,0,0-3.9-.805,97.191,97.191,0,0,0-22.266,7.383,4.614,4.614,0,0,0-2.647,2.976,97.21,97.21,0,0,0-4.739,22.975A4.614,4.614,0,0,0,163,287.4a97.166,97.166,0,0,0,17.527,15.591,4.616,4.616,0,0,0,3.9.805,97.194,97.194,0,0,0,22.266-7.384,4.61,4.61,0,0,0,2.647-2.976,97.142,97.142,0,0,0,4.739-22.974,4.613,4.613,0,0,0-1.253-3.781A97.168,97.168,0,0,0,195.3,251.09Z" transform="translate(-123.934 -213.543)"/><path d="M587.548,332.178h1.493v3.533l-.036,1.6a4.38,4.38,0,0,1,2.769-1.237c2.3,0,3.515,1.766,3.515,4.5,0,3.024-1.8,4.791-3.824,4.791a4,4,0,0,1-2.531-1.093h-.057l-.128.874h-1.2Zm3.661,11.931c1.457,0,2.534-1.329,2.534-3.515,0-1.949-.658-3.261-2.332-3.261a3.654,3.654,0,0,0-2.37,1.2v4.645A3.475,3.475,0,0,0,591.209,344.109Z" transform="translate(-123.934 -213.543)"/><path d="M597.556,347.715c1,0,1.639-.8,2-1.894l.2-.656-3.554-8.871h1.55l1.805,4.9c.27.764.583,1.676.853,2.5h.075c.256-.8.508-1.713.746-2.5l1.585-4.9h1.457l-3.333,9.582c-.619,1.748-1.532,3.078-3.316,3.078a2.95,2.95,0,0,1-1.038-.182l.291-1.183A2.661,2.661,0,0,0,597.556,347.715Z" transform="translate(-123.934 -213.543)"/><path d="M608.837,333.2h1.529v10.655h5.21v1.294h-6.739Z" transform="translate(-123.934 -213.543)"/><path d="M617.268,336.294h1.514v5.411c0,1.658.49,2.367,1.656,2.367.91,0,1.55-.455,2.388-1.493v-6.285h1.493v8.853h-1.24l-.128-1.384H622.9a3.747,3.747,0,0,1-2.914,1.6c-1.876,0-2.715-1.2-2.715-3.46Z" transform="translate(-123.934 -213.543)"/><path d="M628.94,340.52l-2.68-4.226h1.62l1.187,1.949c.271.475.562.985.875,1.477h.071c.256-.492.529-1,.8-1.477l1.073-1.949h1.568l-2.68,4.391,2.879,4.462h-1.621l-1.294-2.058c-.309-.529-.636-1.075-.966-1.585H629.7c-.31.51-.6,1.038-.892,1.585l-1.2,2.058h-1.567Z" transform="translate(-123.934 -213.543)"/><path d="M635.113,333.507a1.042,1.042,0,1,1,1.041.967A.982.982,0,0,1,635.113,333.507Zm.274,2.787h1.492v8.853h-1.492Z" transform="translate(-123.934 -213.543)"/><path d="M643.185,336.077c2.168,0,4.1,1.693,4.1,4.663,0,2.932-1.929,4.626-4.1,4.626s-4.1-1.694-4.1-4.626C639.087,337.77,641.016,336.077,643.185,336.077Zm0,8.05c1.528,0,2.548-1.367,2.548-3.387,0-2.04-1.02-3.426-2.548-3.426s-2.552,1.386-2.552,3.426C640.633,342.76,641.67,344.127,643.185,344.127Z" transform="translate(-123.934 -213.543)"/><path d="M649.543,336.294h1.24l.128,1.276h.054a4.166,4.166,0,0,1,2.967-1.493c1.859,0,2.7,1.2,2.7,3.46v5.61h-1.493v-5.409c0-1.658-.512-2.369-1.677-2.369-.91,0-1.529.474-2.421,1.366v6.412h-1.5Z" transform="translate(-123.934 -213.543)"/></svg>