<svg xmlns="http://www.w3.org/2000/svg" xmlns:xlink="http://www.w3.org/1999/xlink" viewBox="0 0 1114 1114"><defs><style>.cls-1{fill:#42a34a;}.cls-2{fill:url(#未命名的渐变_50);}.cls-3{fill:#fce017;}.cls-4{fill:url(#未命名的渐变_85);}.cls-5{fill:#fcda17;}.cls-6{fill:none;}</style><linearGradient id="未命名的渐变_50" x1="840" y1="90.54" x2="715.63" y2="327.17" gradientUnits="userSpaceOnUse"><stop offset="0" stop-color="#fbe711"/><stop offset="0.14" stop-color="#fbe219"/><stop offset="0.68" stop-color="#fbd132"/><stop offset="1" stop-color="#fbcb3b"/></linearGradient><linearGradient id="未命名的渐变_85" x1="387.07" y1="37.81" x2="379.96" y2="204.86" gradientUnits="userSpaceOnUse"><stop offset="0.53" stop-color="#fbd93a"/><stop offset="0.84" stop-color="#fbca3b"/><stop offset="1" stop-color="#fbc03b"/></linearGradient></defs><g id="图层_2" data-name="图层 2"><g id="图层_3" data-name="图层 3"><path class="cls-1" d="M586.52,671.33c-9.85,11.82-5.91,228.52-21.67,295.49-19.7,55.16-61.07,110.32-90.62,132-21.47,16.6-45.31,7.88-51.22-3.94-7.88-13.79-11.82-29.55,15.38-47.28,47.66-29.55,63.42-43.34,83.12-94.55,11.82-37.43,11.82-269.89-2-283.68C530.93,654.85,572.73,657.54,586.52,671.33Z"/><path class="cls-1" d="M417.5,457c-3.27,21.71,43.44,25.74,70,72,28.81,50.18,26,104,35,123,17.89,14.36,33.34,21.48,45,10,8.66-8.53,17,38,22-30s91.3-137.27,75-182c-8.83-24.23-49.47-36.95-62-27-6.84,5.43-2.7,15.53-3,37-.63,45.69-12,127-45,127s-32.45-137.78-69-157C462.05,417.67,420.46,437.38,417.5,457Z"/><path class="cls-1" d="M1046.56,649.66c-3.82-18.32-16.06-61.42-55.16-92.59-25.7-20.49-50.36-25.74-86.68-33.49,0,0-64.28-13.71-137.9-3.94-65,9.85-76.83,9.85-76.83-2s15.76-11.82,29.55-13.79c26.79-3.3,47.6-3.28,57.13-3.94,73.17-5,78.28-5,88.65-7.88C909.08,480,937.67,459,954,446.75c27.29-20.44,47.79-35.8,61.07-65,13.14-28.92,12.31-56.28,11.82-72.89-.49-16.21-1.12-37.27-11.82-61.07-19.06-42.37-56.59-63.46-63-67-26.87-14.63-40.89-10.74-59.1-29.55-11.14-11.5-10.94-18.17-21.67-37.43-7.24-13-26.83-48.16-63-70.92-10.79-6.78-40.37-25.37-78.8-21.67-23.13,2.23-38.7,11.49-59.1,23.64a250.86,250.86,0,0,0-74.86,68.95c-14.61,20.32-33.53,46.63-39.4,84.71-4.5,29.2,3.52,105.88,2,128-.47,6.7,3.94,41.37-9.85,41.37s-12.83-21.18-15.76-37.43c-2.17-12-.95-100.93-5.91-149.71-1.61-15.88-2.42-23.82-3.94-29.55-13.08-49.38-54.79-76.18-65-82.74-13.64-8.77-51.66-32.39-102.44-25.61-5.5.73-52.57,7.69-86.67,45.31-19.09,21-11.14,26.37-39.4,63-22.93,29.74-43.32,45.91-53.19,53.19-15.5,11.41-16.35,9.19-31.52,19.69-12.38,8.58-64,46.22-76.83,100.47a170.4,170.4,0,0,0-3.94,31.52c-.17,8.82-.45,23.09,3.94,37.43,11,35.93,44,53.44,61.07,63S201.5,492,244.78,499.94s112.72.06,135.92,2,41.37,3.94,41.37,17.73-41.37,13.79-45.31,13.79c-25.61,2-99.18-4.79-132-2-35.8,3.08-60.58,5.21-88.65,19.7-51.58,26.62-72.87,73.61-76.83,82.74C73.2,648,59.11,681.59,67.48,722.55c6.35,31.11,22.81,52.51,29.55,61.07,23.43,29.78,38.78,26.88,59.1,57.13,12.59,18.73,7.43,20.94,23.64,49.25,7.23,12.62,19.57,33.91,41.37,55.16,16.33,15.92,35.79,34.9,67,43.33,27.3,7.39,49.82,3,65,0,14.72-2.88,59.43-12.29,94.56-51.21,25.19-27.91,33.53-57.77,39.4-78.8,7.42-26.58,9-50.73,9.85-65,2.38-39.47-3.18-52.67,5.91-78.8,5.13-14.74,21.67-41.37,51.22-41.37s51.22,23.64,55.16,41.37c4.74,25.31,2.38,67.88,9.85,96.53A193.34,193.34,0,0,0,627,834.84c3.85,9.73,20.56,46.69,61.07,88.65,24.64,25.51,48.88,51,88.65,59.09a130.89,130.89,0,0,0,53.19,0c33.82-7.47,55.25-27.41,63-35.45,17.85-18.45,26.34-38.81,41.37-74.86,10.25-24.61,12.15-36.16,25.61-51.22,10.44-11.69,17.72-14.45,33.49-27.58,10.79-9,32.9-27.41,45.31-49.25C1059.16,708.16,1050.31,667.66,1046.56,649.66ZM556.5,630a101,101,0,1,1,101-101A101,101,0,0,1,556.5,630Z"/><path class="cls-2" d="M778.24,338.1c-15.77,0-32.19-6.34-40.86-15.79-4.77-5.19-6.92-10.95-6.39-17.1,1.58-18.38,8.9-28.8,16-38.87,6-8.51,12.16-17.3,14.19-30.33a55.53,55.53,0,0,0-1.84-33.18c-2.48-6.4-6.23-16.08-15.48-18.84a17.44,17.44,0,0,0-5-.72,24.21,24.21,0,0,0-13.39,4.58c-11.45,8.62-10.21,25.57-9.67,32.8.12,1.66.56,4.2,1.13,7.42,2.06,11.75,5.9,33.64-1.27,43.52-1.88,2.5-9,10.87-20.82,12.27a30.29,30.29,0,0,1-3.45.2h0c-12.34,0-24.11-7.55-28.61-18.35-5.28-12.67,1.24-25,3.39-29.07a36.45,36.45,0,0,1,8-10.12c1.21-1.17,2.47-2.39,3.76-3.82,15.47-17.11,17.73-45,14.39-59.3-1.54-6.65-4.23-10.9-7.77-12.31a7.83,7.83,0,0,0-2.87-.53c-4.63,0-9.14,3.74-10.63,5-6.51,5.39-7.66,12.28-8.67,18.36-.86,5.12-1.54,9.17-5,11.54a12.68,12.68,0,0,1-7.06,1.94,15.3,15.3,0,0,1-10.5-3.9c-4.43-5.22-.42-17.59,3.12-28.5s6.65-20.53,3.17-26.11a8.79,8.79,0,0,0-6.59-4,29.79,29.79,0,0,0-3.61-.23c-26.92,0-51.08,37.73-79.24,88.3.18-40.4,24.54-79.16,45.77-105.29,26.6-32.74,57-56.15,68.74-60.47l.22-.08.2-.11c20.6-12.27,35.48-21.13,58.06-23.3,3.25-.32,6.55-.48,9.82-.48,32.77,0,57.93,15.82,67.41,21.77,35.67,22.43,54.93,57,62.18,70,3.82,6.85,6.19,12,8.29,16.54,3.68,8,6.35,13.74,13.77,21.41a61.21,61.21,0,0,0,22.37,15.13,15.29,15.29,0,0,0,3.14,1.07c45.54,12.88,71.19,38.7,85.18,59.88-7.24-1.81-15.26-4.11-23.65-6.52-21.13-6.06-43-12.33-57.75-12.33-10.14,0-16.22,3.12-18.07,9.27l0,.11c-1.2,4.8,1,12.15,3.57,20.66,2.06,6.86,4.19,14,4.24,19.19-1.73,13-15.18,17.63-26.21,17.63a39.53,39.53,0,0,1-4.5-.26c-15.48-1.78-23.63-6.71-26.4-16-2.57-8.57,2.65-18.8,7.25-27.82a91.65,91.65,0,0,0,5.48-12c3.79-11.39,4.47-21.82,2-31-2.81-10.51-18.37-37-31.37-37.86-.41,0-.82,0-1.22,0-17.33,0-29.18,23.8-37,39.55-6.68,13.4-15.82,31.75-11.21,53.07l0,.11a221.89,221.89,0,0,0,10.51,29.79c6.63,16,11.42,27.61,7.61,47.91C803.22,332.28,793.19,338.1,778.24,338.1Z"/><path class="cls-3" d="M739.45,20.75v5c32,0,56.77,15.54,66.08,21.39,35.13,22.08,54.16,56.25,61.33,69.12,3.77,6.76,6.12,11.86,8.2,16.37,3.79,8.2,6.52,14.13,14.24,22.1a63.6,63.6,0,0,0,23.21,15.7,20,20,0,0,0,3.42,1.17c40.92,11.57,65.51,33.74,79.93,53.34-5.39-1.45-11.12-3.1-17-4.79-21.3-6.11-43.32-12.43-58.44-12.43-11.38,0-18.26,3.72-20.46,11.05l0,.11,0,.11c-1.37,5.47.93,13.13,3.59,22,2,6.61,4,13.45,4.13,18.31-1.61,11.28-13.74,15.29-23.7,15.29a36.61,36.61,0,0,1-4.21-.24c-18.4-2.12-22.65-8.71-24.3-14.21-2.28-7.61,2.7-17.36,7.09-26a93.35,93.35,0,0,0,5.62-12.37c3.95-11.86,4.65-22.77,2.06-32.43-3.13-11.66-19.07-38.75-33.62-39.7-.47,0-.93,0-1.39,0-18.87,0-31.15,24.63-39.27,40.93-6.84,13.74-16.21,32.54-11.42,54.72l0,.11,0,.1a222.51,222.51,0,0,0,10.61,30.12c6.46,15.63,11.13,26.92,7.47,46.49-2.36,12.55-19.24,13.52-24.35,13.52-14.88,0-30.92-6.16-39-15-4.27-4.66-6.2-9.77-5.74-15.19C735,287.71,741.81,278,749,267.78c6.13-8.72,12.47-17.72,14.6-31.27a58,58,0,0,0-2-34.59c-2.65-6.85-6.67-17.21-17.09-20.33a20.35,20.35,0,0,0-5.73-.82A26.37,26.37,0,0,0,724,185.85c-12.55,9.44-11.18,28-10.67,35,.13,1.78.59,4.37,1.17,7.66,1.85,10.57,5.7,32.54-.81,41.59-1.8,2.37-8.36,10-19.11,11.29a27.63,27.63,0,0,1-3.16.18c-11.36,0-22.18-6.91-26.3-16.81-4.83-11.58,1.28-23.15,3.29-26.95a34.06,34.06,0,0,1,7.54-9.48c1.25-1.2,2.54-2.45,3.89-3.94,15.13-16.74,19-44.21,15-61.55-1.74-7.48-5-12.34-9.28-14.06a10.1,10.1,0,0,0-3.8-.71c-5.53,0-10.57,4.17-12.22,5.54-7.23,6-8.52,13.69-9.55,19.88-.87,5.18-1.48,8.19-4,9.88a10.12,10.12,0,0,1-5.66,1.51,13,13,0,0,1-8.66-3.09c-3.41-4.25.67-16.83,3.66-26,3.76-11.61,7-21.63,2.91-28.21a11.24,11.24,0,0,0-8.35-5.1h-.1a31.29,31.29,0,0,0-3.87-.24c-26.48,0-49.76,33.64-76.1,80.11a136.11,136.11,0,0,1,11-39.28c7.69-17.68,19-35.77,33.61-53.75C630.67,76.88,660.56,53.79,672,49.57l.43-.16.4-.24c20.32-12.09,35-20.83,57-23,3.17-.3,6.39-.46,9.58-.46v-5m0,0c-3.28,0-6.64.16-10.06.49-23.13,2.23-38.7,11.49-59.1,23.64C645.5,54,547.5,140,554.5,222c30.74-55.71,55-94.82,81.38-94.82a27.43,27.43,0,0,1,3.26.2C657.5,130,626.5,172,638,185.18c3,3,7.72,4.69,12.33,4.69a15.11,15.11,0,0,0,8.47-2.37c9.13-6.21,2.77-20.84,13.89-30.05,1.23-1,5.3-4.39,9-4.39a5.25,5.25,0,0,1,2,.35c10.26,4.08,12.18,45.79-7.55,67.62-4.25,4.7-8.27,7.11-12.14,14.44-2.16,4.08-9.22,17.44-3.49,31.2,5,12,17.85,19.89,30.92,19.89a31.44,31.44,0,0,0,3.75-.22c13.4-1.59,21.06-11.32,22.54-13.28,9.76-13.46,1.17-45,.61-52.59-.49-6.7-1.68-22.82,8.68-30.63a21.83,21.83,0,0,1,11.89-4.07,15.24,15.24,0,0,1,4.3.61c8.07,2.42,11.42,11.06,13.86,17.35a53.46,53.46,0,0,1,1.72,31.79C754.5,263,731.5,270,728.5,305c-1.85,21.61,26.42,35.6,49.74,35.6,14.43,0,27-5.36,29.26-17.6,6-32-9-44-18.16-78.8-4.43-20.46,4.49-38.35,11-51.43,7.44-14.93,19-38.16,34.79-38.16.35,0,.7,0,1.06,0,11.11.73,26.2,25.12,29.12,36,2.16,8.05,2,17.73-2,29.55s-16.86,27.68-12.76,41.36c3.31,11,13.23,16,28.52,17.73a41.75,41.75,0,0,0,4.78.28c13,0,27-6,28.71-20,0-11.82-9.85-31.52-7.88-39.39,1.62-5.41,7.4-7.49,15.67-7.49,21.85,0,61,14.48,86.77,20.19-33.49-56-92.78-66.1-92.38-67a58.78,58.78,0,0,1-21.88-14.69c-11.14-11.5-10.94-18.17-21.67-37.43-7.24-13-26.83-48.16-63-70.92-9.83-6.18-35.25-22.15-68.74-22.16Z"/><path class="cls-4" d="M440.86,215.84c-9,0-17.11-4.1-20.18-10.19-2.84-5.66-1.31-12.73,4.43-20.46,6.58-8.39,6.25-23.91-.89-39.49-4.65-10.15-23.62-43.44-72.63-45.7-1.5-.07-3-.1-4.55-.1-46,0-91.34,31.11-110.8,45a164.8,164.8,0,0,0,18.3-31.44c3.62-7.9,6.48-14.14,15.36-23.93,32.65-36,76.92-43.53,85.46-44.67a134.81,134.81,0,0,1,17.82-1.19c42,0,73.07,19.95,83.27,26.5,23.14,14.87,40.77,32.71,52.39,53,13.34,24,15.54,33.48,17.48,79.86-5.27-3.58-12.76-13.54-21.94-38.78-3.2-8.81-12.19-21.2-22.14-21.2a11.85,11.85,0,0,0-6.89,2.24C464.46,153,459.5,179,459.5,200,459.5,211.69,449.46,215.84,440.86,215.84Z"/><path class="cls-5" d="M373.18,45.7c41.44,0,72.11,19.71,82.19,26.18,22.87,14.69,40.27,32.3,51.71,52.31,12.69,22.84,15.16,32.36,17,74.32-4.44-4.81-10.52-14.7-17.86-34.88-3.17-8.7-12.49-22.51-24-22.51a13.82,13.82,0,0,0-8,2.6C461,153,457.5,183.44,457.5,200c0,10.2-8.59,13.84-16.64,13.84s-15.7-3.74-18.39-9.09c-3.13-6.22.55-13.39,4.21-18.33,7-9,6.79-25.32-.64-41.56C413.31,117.08,385.52,99.57,351.68,98c-1.52-.07-3.09-.1-4.64-.1-40.52,0-80.31,23.66-102.93,39.07a160.71,160.71,0,0,0,12.25-22.65c3.55-7.74,6.35-13.86,15-23.42C285.27,75.58,303,63.66,323.93,55.46a143.73,143.73,0,0,1,31.69-8.59,134.4,134.4,0,0,1,17.56-1.17m0-4a136.93,136.93,0,0,0-18.09,1.21c-5.5.73-52.57,7.69-86.67,45.31-19.09,21-11.14,26.37-39.4,63-.79,1-1,1.49-.76,1.49,2.84,0,60.79-50.85,118.78-50.85,1.49,0,3,0,4.46.1,65,3,86.38,63.68,72,82-15.67,21.1,1.36,33.84,17.36,33.84,10.55,0,20.64-5.53,20.64-17.84,0-21,5-46,15-53a9.82,9.82,0,0,1,5.74-1.88c8.46,0,17,10.93,20.26,19.88,4,11,14.13,37.48,26,41.42-2-49.25-3.94-59.1-17.87-84.17-17.76-31.06-45.05-48.6-53.05-53.73-12-7.69-42.7-26.82-84.35-26.82Z"/><rect class="cls-6" width="1114" height="1114"/></g></g></svg>