<svg xmlns="http://www.w3.org/2000/svg" width="1659.166" height="969.739" viewBox="0 0 1659.166 969.739"><g transform="translate(-147.313 -4436.893)"><text transform="translate(214.313 4617)" fill="#1a1818" font-size="27" font-family="HelveticaNeue-Medium, Helvetica Neue" font-weight="500"><tspan x="0" y="26">ease and efficiency of use. they must be </tspan><tspan x="0" y="76">able to add something to the cart, </tspan><tspan x="0" y="126">purchase and receive confirmation in </tspan><tspan x="0" y="176">under 60 seconds;</tspan><tspan x="0" y="226"></tspan><tspan x="0" y="276">personalized shopping experience, with a </tspan><tspan x="0" y="326">favorites tab and suggested new items;</tspan><tspan x="0" y="376"></tspan><tspan x="0" y="426">saved credit card, addresses, </tspan><tspan x="0" y="476">preferences, sizing, and proffered method </tspan><tspan x="0" y="526">of shopping;</tspan><tspan x="0" y="576"></tspan><tspan x="0" y="626">innovative and inspiring new ways of </tspan><tspan x="0" y="676">shopping and experiencing the world </tspan><tspan x="0" y="726">around them.</tspan></text><circle cx="18.5" cy="18.5" r="18.5" transform="translate(147.313 4617)" fill="#ff4545"/><circle cx="18.5" cy="18.5" r="18.5" transform="translate(147.313 4867)" fill="#ff6464"/><circle cx="18.5" cy="18.5" r="18.5" transform="translate(147.313 4617)" fill="#ff6464"/><circle cx="18.5" cy="18.5" r="18.5" transform="translate(147.313 5018)" fill="#ff4545"/><circle cx="18.5" cy="18.5" r="18.5" transform="translate(147.313 5018)" fill="#ff6464"/><circle cx="18.5" cy="18.5" r="18.5" transform="translate(147.313 5217)" fill="#ff6464"/><text transform="translate(159.313 4620)" fill="#fff" font-size="25" font-family="HelveticaNeue-Medium, Helvetica Neue" font-weight="500"><tspan x="0" y="24">1</tspan></text><text transform="translate(158.313 4870)" fill="#fff" font-size="25" font-family="HelveticaNeue-Medium, Helvetica Neue" font-weight="500"><tspan x="0" y="24">2</tspan><tspan x="0" y="84"></tspan></text><text transform="translate(158.313 5022)" fill="#fff" font-size="25" font-family="HelveticaNeue-Medium, Helvetica Neue" font-weight="500"><tspan x="0" y="24">3</tspan></text><text transform="translate(158.313 5220)" fill="#fff" font-size="25" font-family="HelveticaNeue-Medium, Helvetica Neue" font-weight="500"><tspan x="0" y="24">4</tspan></text><text transform="translate(147.313 4436.893)" fill="#1a1818" font-size="30" font-family="HelveticaNeue-Bold, Helvetica Neue" font-weight="700"><tspan x="0" y="29">Zara</tspan><tspan y="29" font-family="HelveticaNeue, Helvetica Neue" font-weight="400"> </tspan><tspan y="29" font-family="HelveticaNeue-Light, Helvetica Neue" font-weight="300">Key Features &amp; Workflow</tspan></text><g transform="translate(780.071 4384.182)"><rect width="84.3" height="133.155" transform="translate(43.641 491.329)" fill="#39a95e"/><text transform="translate(45.761 636.778)" fill="#1a1818" font-size="14" font-family="HelveticaNeue, Helvetica Neue"><tspan x="0" y="13">Dashboard</tspan><tspan x="0" y="31">- Account</tspan><tspan x="0" y="49">- Menu</tspan><tspan x="0" y="67">- Favorites</tspan><tspan x="0" y="85">- Cart</tspan></text><line x2="98.578" transform="translate(151.52 559.208)" fill="none" stroke="#1a1818" stroke-miterlimit="10" stroke-width="1"/><rect width="84.3" height="130.551" transform="translate(272.202 493.933)" fill="none" stroke="#39a95e" stroke-miterlimit="10" stroke-width="3"/><text transform="translate(273.842 635.011)" fill="#1a1818" font-size="14" font-family="HelveticaNeue, Helvetica Neue"><tspan x="0" y="13">Menu</tspan><tspan x="0" y="31">- Woman</tspan><tspan x="0" y="49">- Men</tspan><tspan x="0" y="67">- Kids</tspan><tspan x="0" y="85">- Join Life</tspan></text><rect width="84.3" height="84.295" transform="translate(511.929 517.511)" fill="none" stroke="#ae0721" stroke-miterlimit="10" stroke-width="3"/><text transform="translate(511.929 613.759)" fill="#1a1818" font-size="14" font-family="HelveticaNeue, Helvetica Neue"><tspan x="0" y="13">Woman</tspan><tspan x="0" y="31">- New In</tspan><tspan x="0" y="49">- Clothing</tspan><tspan x="0" y="67">- Shoes</tspan><tspan x="0" y="85">- Accessories</tspan><tspan x="0" y="103">- Lingerie</tspan><tspan x="0" y="121">- SALE</tspan><tspan x="0" y="139"></tspan></text><line x2="48.508" transform="translate(370.666 560.1)" fill="none" stroke="#1a1818" stroke-miterlimit="10" stroke-width="3"/><path d="M405.563,35.3H359.352V878.536h41.6" transform="translate(70.237 128.237)" fill="none" stroke="#1a1818" stroke-miterlimit="10" stroke-width="3"/><line x2="48.508" transform="translate(449.257 560.1)" fill="none" stroke="#1a1818" stroke-miterlimit="10" stroke-width="3"/><rect width="84.3" height="84.295" transform="translate(674.128 517.511)" fill="none" stroke="#ae0721" stroke-miterlimit="10" stroke-width="3"/><text transform="translate(676.146 613.759)" fill="#1a1818" font-size="14" font-family="HelveticaNeue, Helvetica Neue"><tspan x="0" y="13">Clothing</tspan><tspan x="0" y="31">- Tops</tspan><tspan x="0" y="49">- Bottoms</tspan><tspan x="0" y="67">- Dresses</tspan><tspan x="0" y="85"></tspan></text><line x2="59.877" transform="translate(605.24 560.009)" fill="none" stroke="#1a1818" stroke-miterlimit="10" stroke-width="1"/><rect width="84.3" height="84.295" transform="translate(511.929 768.216)" fill="none" stroke="#482080" stroke-miterlimit="10" stroke-width="3"/><text transform="translate(517.053 864.464)" fill="#1a1818" font-size="14" font-family="HelveticaNeue, Helvetica Neue"><tspan x="0" y="13">Cart</tspan></text><rect width="84.3" height="84.295" transform="translate(667.549 768.216)" fill="none" stroke="#482080" stroke-miterlimit="10" stroke-width="3"/><text transform="translate(672.673 864.464)" fill="#1a1818" font-size="14" font-family="HelveticaNeue, Helvetica Neue"><tspan x="0" y="13">Checkout</tspan></text><line x2="50.958" transform="translate(605.24 810.714)" fill="none" stroke="#1a1818" stroke-miterlimit="10" stroke-width="1"/><line x2="48.508" transform="translate(449.257 810.714)" fill="none" stroke="#1a1818" stroke-miterlimit="10" stroke-width="3"/><rect width="84.3" height="84.295" transform="translate(511.929 895.201)" fill="none" stroke="#ec411b" stroke-miterlimit="10" stroke-width="3"/><text transform="translate(517.053 991.099)" fill="#1a1818" font-size="14" font-family="HelveticaNeue, Helvetica Neue"><tspan x="0" y="13">Zara Chat</tspan></text><line x2="48.508" transform="translate(449.257 937.349)" fill="none" stroke="#1a1818" stroke-miterlimit="10" stroke-width="3"/><rect width="84.3" height="84.295" transform="translate(829.945 517.511)" fill="none" stroke="#ae0721" stroke-miterlimit="10" stroke-width="3"/><text transform="translate(829.945 613.759)" fill="#1a1818" font-size="14" font-family="HelveticaNeue, Helvetica Neue"><tspan x="0" y="13">Tops</tspan><tspan x="0" y="31">Product Screen</tspan><tspan x="0" y="49">- Styled</tspan><tspan x="0" y="67">- Product Details</tspan></text><line x2="51.431" transform="translate(767.636 560.009)" fill="none" stroke="#1a1818" stroke-miterlimit="10" stroke-width="1"/><path d="M765.12,591.488v21.9L491.628,612.27V647.2" transform="translate(88.95 121.016)" fill="none" stroke="#1a1818" stroke-miterlimit="10" stroke-width="1"/><rect width="84.3" height="84.295" transform="translate(511.929 293.318)" fill="none" stroke="#0063b0" stroke-miterlimit="10" stroke-width="3"/><text transform="translate(517.053 390.065)" fill="#1a1818" font-size="14" font-family="HelveticaNeue, Helvetica Neue"><tspan x="0" y="13">Account</tspan></text><rect width="84.3" height="84.295" transform="translate(673.754 293.816)" fill="none" stroke="#0063b0" stroke-miterlimit="10" stroke-width="3"/><text transform="translate(665.971 390.065)" fill="#1a1818" font-size="14" font-family="HelveticaNeue, Helvetica Neue"><tspan x="0" y="13">Profile</tspan><tspan x="0" y="31">- Past Orders</tspan><tspan x="0" y="49">- Favorites</tspan><tspan x="0" y="67">- Payments</tspan><tspan x="0" y="85">- Saved Location</tspan><tspan x="0" y="103">- Returns &amp; Support</tspan></text><line x2="59.877" transform="translate(605.24 335.816)" fill="none" stroke="#1a1818" stroke-miterlimit="10" stroke-width="1"/><line x2="48.508" transform="translate(449.257 335.816)" fill="none" stroke="#1a1818" stroke-miterlimit="10" stroke-width="3"/><rect width="84.3" height="84.295" transform="translate(830.224 292.328)" fill="none" stroke="#0063b0" stroke-miterlimit="10" stroke-width="3"/><text transform="translate(829.945 388.576)" fill="#1a1818" font-size="14" font-family="HelveticaNeue, Helvetica Neue"><tspan x="0" y="13">Edit Profile</tspan></text><line x2="52.204" transform="translate(766.863 336.604)" fill="none" stroke="#1a1818" stroke-miterlimit="10" stroke-width="1"/><rect width="84.3" height="84.295" transform="translate(667.549 895.201)" fill="none" stroke="#ec411b" stroke-miterlimit="10" stroke-width="3"/><text transform="translate(672.673 991.45)" fill="#1a1818" font-size="14" font-family="HelveticaNeue, Helvetica Neue"><tspan x="0" y="13">Support</tspan></text><line x2="50.958" transform="translate(605.24 937.349)" fill="none" stroke="#1a1818" stroke-miterlimit="10" stroke-width="1"/><rect width="84.3" height="84.295" transform="translate(515.412 163.541)" fill="none" stroke="#cc004a" stroke-miterlimit="10" stroke-width="3"/><text transform="translate(517.053 258.137)" fill="#1a1818" font-size="14" font-family="HelveticaNeue, Helvetica Neue"><tspan x="0" y="13">Favorites</tspan></text><line x2="48.508" transform="translate(449.257 209.76)" fill="none" stroke="#1a1818" stroke-miterlimit="10" stroke-width="3"/><text transform="translate(928.409 523.461)" fill="#1a1818" font-size="18" font-family="HelveticaNeue, Helvetica Neue"><tspan x="0" y="17">repeat with</tspan><tspan x="0" y="39">men &amp; kids</tspan><tspan x="0" y="61">categories</tspan></text></g></g></svg>