<svg id="Layer_1" data-name="Layer 1" xmlns="http://www.w3.org/2000/svg" viewBox="0 0 566.929 566.929"><defs><style>.cls-1{fill:#221e1f;}.cls-2{fill:#fff;}.cls-3{fill:#ed1b23;}</style></defs><rect class="cls-1" width="566.929" height="566.929" rx="67.006"/><path class="cls-2" d="M64.512,224.5c53.625-17.153,115.334.2,162.455,86.354,4.238,8.28,9.709,6.21,9.413-2.218,1.035-8.724-.343-45.333-23.214-77.748-.765-1.682.05-2.595,1.281-3.826,5.372-4,45.05-12.42,89.41-44.162,3.425-2.341,18.236-9.365,15.772-30.411-7.394-51.9-48.8-87.093-60.329-94.191s-10.251,5.323-10.054,7.2c-2.071,40.12-14.119,99.07-57.038,139.289-15.319-4.338-20.741-15.181-20.741-15.181s57.865-75.51,42.881-135.839c-3.943-16.955-8.576-22.969-27.5-19.124s-63.878,18.039-63.878,18.039-7,2.662-1.478,9.76,32.136,33.91,10.45,108.829c-19.716-6.7-63.089-14.984-67.427-3.155S45.19,223.9,64.512,224.5Z" transform="translate(0 0)"/><path class="cls-2" d="M249.54,253.477c-.591,3.1,2.662,21.293,0,36.375-4.435,11.237-5.932,18.04,2.8,24.841s73.991,37.557,112.239,78.565c14.639,14.886,22.032-3.6,11.237-12.173-2.957-3.253-16.856-15.673-16.56-19.962s8.28,3.993,11.237,7.1c-7.984-16.118,9.464-36.671,28.095-13.456,7.591,7.344,2.268,24.693-4.238,29.425,7.128-7.127-5.275-24.891-15.182-14.983-5.126,4.928,8.97,16.067,12.125,18.828s14.392-6.606,18.335-13.112c2.9-4.039,7.074-7.442,13.112-33.515,1.922-6.753,4.413-9.2,10.449-15.235s94.043-79.794,103.8-110.846c5.718-16.167,2.958-21.884-9.167-10.351s-79.257,61.809-104.689,68.906-29.869-5.766-26.172-8.872c2.248-2.25,58.8-63.386-4.044-30.46-23.015,8.477-45.49-10.253-50.222-27.011-9.982-31.914-9.661-38.247-32.334-18.729-12.224,10.055-33.911,20.9-42.191,23.855-24.842,5.915-34.7,33.714-14.59,36.474s31-.394,25.531,5.373-13.6,10.942-4.435,15.969,26.674,17.449,27.68,18.631,9.138,2.219,11.5-3.7.295-7.542-1.331-8.429.148-3.549,3.993-3.105,13.011-3.105,15.23-4.732,28.242-5.914,34.6,3.106c-7.218,2.255-9.315-2.416-19.519,1.182-5.594,2.163-19.18,3.884-25.581,18.336-4.781,10.794-6.556,33.072-26.073,26.764S255.6,306.265,258.708,286.6,260.483,254.216,249.54,253.477Z" transform="translate(0 0)"/><path class="cls-1" d="M284.634,268.855c9.364,5.224,12.519,8.673,13.7,9.955s7.689,1.874,7-4.238c-2.761-5.028-12.716-11.928-15.279-12.027S282.466,263.137,284.634,268.855Z" transform="translate(0 0)"/><path class="cls-2" d="M94.757,501.074,75.372,469.888q-3.323,0-10.51-.5v31.681H54.946V428.442q.546,0,7.71-.372t10.436-.372q26.177,0,26.177,20.822a19.693,19.693,0,0,1-4.214,12.32,17.517,17.517,0,0,1-10.015,6.818l21.07,33.416Zm-29.9-63.708v23.6a50.511,50.511,0,0,0,6.941.5q8.923,0,12.989-2.876t4.066-10.262q0-6.1-4.364-8.776T70.712,436.87Q69.226,436.87,64.862,437.366Z" transform="translate(0 0)"/><path class="cls-2" d="M145.525,501.074V467.708q0-5.951-2.925-9.371a10.24,10.24,0,0,0-8.23-3.421,13.541,13.541,0,0,0-6.866,2.008,15.984,15.984,0,0,0-5.28,4.686v39.464H112.8V426.21h9.42v27.616a14,14,0,0,1,6.073-4.884,20.208,20.208,0,0,1,8.651-1.959q8.429,0,13.213,5.554t4.784,15.171v33.366Z" transform="translate(0 0)"/><path class="cls-2" d="M249.242,474.4q0-12.294,6.618-19.856t17.427-7.561q11.4,0,17.7,7.263t6.3,20.154q0,12.84-6.445,20.253t-17.551,7.412q-11.352,0-17.7-7.486T249.242,474.4Zm9.915,0q0,19.979,14.13,19.98a11.929,11.929,0,0,0,10.337-5.354q3.744-5.353,3.744-14.626,0-19.732-14.081-19.732A12.113,12.113,0,0,0,263,459.923Q259.159,465.178,259.157,474.4Z" transform="translate(0 0)"/><path class="cls-3" d="M347.258,452.289l-4.66,6.642a13.956,13.956,0,0,0-5.082-2.725,21.36,21.36,0,0,0-7.164-1.29,15.092,15.092,0,0,0-12.2,5.379q-4.509,5.379-4.511,14.749,0,9.321,4.61,14.2t12.792,4.884q6.345,0,12.791-4.908l3.718,7.933q-7.586,4.908-18.789,4.908a23.983,23.983,0,0,1-17.949-7.288q-7.088-7.29-7.089-19.733,0-12.691,7.363-20.376t20.153-7.685a26.422,26.422,0,0,1,8.924,1.736A25.364,25.364,0,0,1,347.258,452.289Z" transform="translate(0 0)"/><path class="cls-3" d="M402.19,475.441H363.916q0,9.323,5.107,14.328a15.992,15.992,0,0,0,11.6,4.363,19.78,19.78,0,0,0,13.485-4.71l3.967,6.792a17.742,17.742,0,0,1-6.693,3.768,36.188,36.188,0,0,1-12.593,2.083,23.5,23.5,0,0,1-17-6.792Q354,487.785,354,475.144q0-13.14,7.983-21.071a23.187,23.187,0,0,1,16.906-7.09q11.354,0,17.8,6.4,6.247,6.149,6.247,16.312A21.045,21.045,0,0,1,402.19,475.441Zm-22.855-20.525A14.888,14.888,0,0,0,364.164,468.6h29.4a13.4,13.4,0,0,0-3.57-9.518Q386.078,454.915,379.335,454.916Z" transform="translate(0 0)"/><path class="cls-3" d="M441.7,457.048a10.8,10.8,0,0,0-6.2-2.132q-5.007,0-8.75,4.611a17.062,17.062,0,0,0-3.743,11.105v30.442h-9.419v-53.1h9.419v8.479q5.154-9.471,15.319-9.471a42.924,42.924,0,0,1,7.288.892Z" transform="translate(0 0)"/><path class="cls-3" d="M448.843,474.4q0-12.294,6.618-19.856t17.427-7.561q11.4,0,17.7,7.263t6.3,20.154q0,12.84-6.445,20.253t-17.552,7.412q-11.353,0-17.7-7.486T448.843,474.4Zm9.915,0q0,19.979,14.13,19.98a11.929,11.929,0,0,0,10.337-5.354q3.744-5.353,3.744-14.626,0-19.732-14.081-19.732a12.109,12.109,0,0,0-10.286,5.255Q458.759,465.178,458.758,474.4Z" transform="translate(0 0)"/><path class="cls-3" d="M503.329,497.9l3.321-8.924q7.884,5.157,12.693,5.156,8.726,0,8.725-7.337,0-5.256-8.427-9.023a69.255,69.255,0,0,1-8.751-4.512,19.465,19.465,0,0,1-3.917-3.5,13.89,13.89,0,0,1-2.479-4.165,13.523,13.523,0,0,1-.817-4.735,12.162,12.162,0,0,1,4.759-10.212q4.758-3.669,12.444-3.67,5.8,0,14.625,3.67l-2.677,8.725q-5.6-4.461-11.255-4.462A9.779,9.779,0,0,0,515.9,456.5a4.727,4.727,0,0,0-2.305,4.016q0,5.108,5.8,7.734l6.743,3.075q6.2,2.824,9.023,6.445a14.291,14.291,0,0,1,2.826,9.072q0,7.14-5.007,11.18T519.1,502.065A31.6,31.6,0,0,1,503.329,497.9Z" transform="translate(0 0)"/><path class="cls-2" d="M178,439.546a5.839,5.839,0,1,0-4.091-1.71A5.58,5.58,0,0,0,178,439.546Z" transform="translate(0 0)"/><polygon class="cls-2" points="172.843 455.907 172.843 501.073 182.262 501.073 182.262 447.975 172.843 447.975 172.843 455.907"/><path class="cls-2" d="M221.875,446.983q-10.56,0-15.22,7.834v-6.842h-9.42v53.1h9.42V461.61a14.987,14.987,0,0,1,5.4-4.76,14.021,14.021,0,0,1,6.742-1.934q6,0,8.553,3.4t2.553,11.874v30.888h9.419V468.2Q239.326,446.982,221.875,446.983Z" transform="translate(0 0)"/></svg>