<svg xmlns="http://www.w3.org/2000/svg" width="943" height="1052" viewBox="0 0 943 1052"><g transform="translate(-40 -414.183)"><g transform="translate(0 -272.817)"><text transform="translate(41 719)" font-size="30" font-family="SegoeUI, Segoe UI"><tspan x="0" y="0">Colors</tspan></text><text transform="translate(41 800)" font-size="18" font-family="SegoeUI, Segoe UI"><tspan x="0" y="0">Primary</tspan></text><text transform="translate(40 1124)" font-size="18" font-family="SegoeUI, Segoe UI"><tspan x="0" y="0">Secondary</tspan></text><g transform="translate(0 182)"><rect width="70" height="70" transform="translate(130 648)" fill="#dfedf2"/><rect width="70" height="70" transform="translate(40 648)" fill="#ebf1f2"/><rect width="70" height="70" transform="translate(220 648)" fill="#93aebf"/><rect width="70" height="70" transform="translate(220 738)" fill="#658da6"/><rect width="70" height="70" transform="translate(130 738)" fill="#4a6d8c"/><rect width="70" height="70" transform="translate(40 738)" fill="#305689"/><rect width="70" height="70" transform="translate(40 828)" fill="#1e3859"/><g transform="translate(130 828)" fill="#141c26" stroke="#707070" stroke-width="1"><rect width="70" height="70" stroke="none"/><rect x="0.5" y="0.5" width="69" height="69" fill="none"/></g></g><g transform="translate(41 1153)" fill="#fff" stroke="#141c26" stroke-width="1"><rect width="158" height="70" stroke="none"/><rect x="0.5" y="0.5" width="157" height="69" fill="none"/></g><text transform="translate(120 1181)" fill="#141c26" font-size="16" font-family="SegoeUI-Bold, Segoe UI" font-weight="700"><tspan x="-49.824" y="0">Music Theme</tspan><tspan x="-58.738" y="28">Color (Variable)</tspan></text></g><g transform="translate(0 -272.817)"><text transform="translate(376 719)" font-size="30" font-family="SegoeUI, Segoe UI"><tspan x="0" y="0">Fonts</tspan></text><text transform="translate(376 843)" font-size="18" font-family="SegoeUI, Segoe UI"><tspan x="0" y="0">Roboto</tspan></text><text transform="translate(703 841)" font-size="18" font-family="SegoeUI, Segoe UI"><tspan x="0" y="0">Roboto Slab</tspan></text><text transform="translate(379 1099)" font-size="18" font-family="SegoeUI, Segoe UI"><tspan x="0" y="0">Roboto Mono</tspan></text><text transform="translate(706 1099)" font-size="18" font-family="SegoeUI, Segoe UI"><tspan x="0" y="0">Program OT Bold</tspan></text><text transform="translate(376 798)" fill="#141c26" font-size="60" font-family="Roboto-Regular, Roboto"><tspan x="0" y="0">AaBbCc</tspan></text><text transform="translate(703 796)" fill="#141c26" font-size="60" font-family="RobotoSlab-Regular, Roboto Slab"><tspan x="0" y="0">AaBbCc</tspan></text><text transform="translate(376 1054)" fill="#141c26" font-size="60" font-family="RobotoMono-Regular, Roboto Mono"><tspan x="0" y="0">AaBbCc</tspan></text><text transform="translate(703 1054)" fill="#141c26" font-size="60" font-family="ProgramOT-Bold, Program OT Bold" font-weight="700"><tspan x="0" y="0">AaBbCc</tspan></text><text transform="translate(376 873)" fill="#141c26" font-size="14" font-family="Roboto-Light, Roboto" font-weight="300" letter-spacing="0.1em"><tspan x="0" y="0">ABCDEFGHIJKLMNOPQRSTUVWXYZ</tspan><tspan x="0" y="22">abcdefghijklmnopqrstuvwxyz</tspan><tspan x="0" y="44">0123456789</tspan><tspan x="0" y="66">~%!@#$%^&amp;*-_=+</tspan><tspan x="0" y="88" xml:space="preserve"> []{}()|\/&lt;&gt;‘’”,.;:?</tspan></text><text transform="translate(703 871)" fill="#141c26" font-size="14" font-family="RobotoSlab-Light, Roboto Slab" font-weight="300" letter-spacing="0.1em"><tspan x="0" y="0">ABCDEFGHIJKLMNOPQRSTUVWXYZ</tspan><tspan x="0" y="22">abcdefghijklmnopqrstuvwxyz</tspan><tspan x="0" y="44">0123456789</tspan><tspan x="0" y="66">~%!@#$%^&amp;*-_=+</tspan><tspan x="0" y="88" xml:space="preserve"> []{}()|\/&lt;&gt;‘’”,.;:?</tspan></text><text transform="translate(379 1129)" fill="#141c26" font-size="14" font-family="RobotoMono-Regular, Roboto Mono" letter-spacing="0.1em"><tspan x="0" y="0">ABCDEFGHIJKLMNOPQRSTUVWXYZ</tspan><tspan x="0" y="22">abcdefghijklmnopqrstuvwxyz</tspan><tspan x="0" y="44">0123456789</tspan><tspan x="0" y="66">~%!@#$%^&amp;*-_=+</tspan><tspan x="0" y="88" xml:space="preserve"> []{}()|\/&lt;&gt;‘’”,.;:?</tspan></text><text transform="translate(706 1129)" fill="#141c26" font-size="14" font-family="ProgramOT-Bold, Program OT Bold" font-weight="700" letter-spacing="0.1em"><tspan x="0" y="0">ABCDEFGHIJKLMNOPQRSTUVWXYZ</tspan><tspan x="0" y="22">abcdefghijklmnopqrstuvwxyz</tspan><tspan x="0" y="44">0123456789</tspan><tspan x="0" y="66">~%!@#$%^&amp;*-_=+</tspan><tspan x="0" y="88" xml:space="preserve"> []{}()|\/&lt;&gt;‘’”,.;:?</tspan></text></g><g transform="translate(0 -306.817)"><text transform="translate(376 1382)" fill="rgba(0,0,0,0.87)" font-size="30" font-family="SegoeUI, Segoe UI"><tspan x="0" y="0">Typography</tspan></text><text transform="translate(377.079 1472)" fill="#141c26" font-size="20" font-family="RobotoSlab-Light, Roboto Slab" font-weight="300"><tspan x="0" y="21">Sed lacinia lectus eros, ut finibus eros viverra id. Nam ante </tspan><tspan x="0" y="51">augue, eleifend eu consequat ut, interdum ac est. Quisque luctus </tspan><tspan x="0" y="81">vulputate justo vitae blandit. Nulla ullamcorper laoreet porta. </tspan><tspan x="0" y="111">Donec ut dignissim ligula. Integer nec nisl ut massa imperdiet </tspan><tspan x="0" y="141">rhoncus. Nulla nisi erat, mollis nec lorem non, mattis finibus </tspan><tspan x="0" y="171">ante. Aenean in erat turpis. Suspendisse potenti.</tspan></text><text transform="translate(376.079 1459)" fill="rgba(0,0,0,0.87)" font-size="20" font-family="SegoeUI, Segoe UI"><tspan x="0" y="0" xml:space="preserve">BODY COPY:   Roboto Slab Light  20PT</tspan></text><text transform="translate(376.079 1708)" fill="rgba(0,0,0,0.87)" font-size="20" font-family="SegoeUI, Segoe UI"><tspan x="0" y="0" xml:space="preserve">TITLE:   Program OT Bold  55PT</tspan></text><text transform="translate(376.079 1760)" fill="#141c26" font-size="55" font-family="ProgramOT-Bold, Program OT Bold" font-weight="700"><tspan x="0" y="0">Lorem ipsum</tspan></text></g><g transform="translate(0 -101.817)"><text transform="translate(41 1177)" fill="rgba(0,0,0,0.87)" font-size="30" font-family="SegoeUI, Segoe UI"><tspan x="0" y="0">Icons</tspan></text><g transform="translate(128 1381.756)"><path d="M16.305,3H7.472A1.476,1.476,0,0,0,6,4.472V16.249a1.476,1.476,0,0,0,1.472,1.472h8.833a1.476,1.476,0,0,0,1.472-1.472V4.472A1.476,1.476,0,0,0,16.305,3ZM7.472,4.472h3.68v5.889l-1.84-1.1-1.84,1.1Z" transform="translate(3.526 9.938)" fill="rgba(20,28,38,0.87)"/><path d="M6.9,18.245H5.933c-2.128,0-2.211,1.183-2.211,3.32v2.75c0,2.137.082,2.771,2.211,2.771H6.9c1.064,0,1.379-.866,1.379-1.934V20.18C8.275,19.111,7.96,18.245,6.9,18.245Zm18,0h-.963c-1.064,0-1.379.866-1.379,1.934v4.972c0,1.068.315,1.934,1.379,1.934H24.9c2.128,0,2.211-.635,2.211-2.771v-2.75c0-2.137-.082-3.32-2.211-3.32Zm-9.482-16C6.8,2.25.275,9.438,0,17.7v5.112a.964.964,0,0,0,.963.965h.963a.964.964,0,0,0,.963-.965V17.7a12.524,12.524,0,1,1,25.048,0v5.112a.964.964,0,0,0,.963.965h.963a.964.964,0,0,0,.963-.965V17.7C30.553,9.438,24.03,2.25,15.414,2.25Z" transform="translate(0 -2.25)" fill="rgba(20,28,38,0.87)"/></g><path d="M.534,15.562H11.447a.533.533,0,0,0,.534-.534V13.434a.533.533,0,0,0-.534-.534H.534A.533.533,0,0,0,0,13.434v1.595a.533.533,0,0,0,.534.534Zm0-10.65H11.447a.533.533,0,0,0,.534-.534V2.784a.533.533,0,0,0-.534-.534H.534A.533.533,0,0,0,0,2.784V4.379a.533.533,0,0,0,.534.534ZM17.972,7.575H.666A.666.666,0,0,0,0,8.241V9.572a.666.666,0,0,0,.666.666H17.972a.666.666,0,0,0,.666-.666V8.241A.666.666,0,0,0,17.972,7.575Zm0,10.65H.666A.666.666,0,0,0,0,18.89v1.331a.666.666,0,0,0,.666.666H17.972a.666.666,0,0,0,.666-.666V18.89A.666.666,0,0,0,17.972,18.225Z" transform="translate(45 1384.506)" fill="rgba(20,28,38,0.87)"/><path d="M12.592,27.188a1.277,1.277,0,0,0,1.273,1.273h5.092a1.277,1.277,0,0,0,1.273-1.273V25.915H12.592ZM16.411,3a8.908,8.908,0,0,0-5.092,16.219V22.1a1.277,1.277,0,0,0,1.273,1.273h7.638A1.277,1.277,0,0,0,21.5,22.1V19.219A8.908,8.908,0,0,0,16.411,3ZM20.04,17.131l-1.082.764v2.928H13.865V17.895l-1.082-.764a6.365,6.365,0,1,1,7.256,0Z" transform="translate(79.5 1380.756)" fill="rgba(20,28,38,0.87)"/><path d="M23.843,4.5H6.3c-1.237,0-1.8,1.012-1.8,2.249V26.092l3.6-3.6H23.843a2.256,2.256,0,0,0,2.249-2.249V6.749A2.256,2.256,0,0,0,23.843,4.5ZM12.057,14.509H9.9V12.26h2.159Zm4.318,0H14.217V12.26h2.159Zm4.318,0H18.535V12.26h2.159Z" transform="translate(280.5 1380.256)" fill="rgba(20,28,38,0.87)"/><path d="M29.638,22.012,22.41,5.465A1.574,1.574,0,0,0,20.977,4.5H15.93l.127,1.2a.414.414,0,0,1-.412.457H14.138a.414.414,0,0,1-.412-.457l.127-1.2H8.807a1.574,1.574,0,0,0-1.434.965L.145,22.012a1.651,1.651,0,0,0,1.434,2.344H11.757L12.29,19.3a.827.827,0,0,1,.823-.74H16.67a.827.827,0,0,1,.823.74l.533,5.051H28.2A1.651,1.651,0,0,0,29.638,22.012ZM13.465,8.18a.414.414,0,0,1,.412-.37h2.032a.414.414,0,0,1,.412.37l.238,2.253a.62.62,0,0,1-.617.686h-2.1a.62.62,0,0,1-.617-.686l.237-2.253Zm2.856,8.73H13.462A.827.827,0,0,1,12.639,16l.262-2.482a.827.827,0,0,1,.823-.74h2.335a.827.827,0,0,1,.823.74L17.144,16a.827.827,0,0,1-.823.914Z" transform="translate(231 1381.256)" fill="rgba(20,28,38,0.87)"/><path d="M25.335,12.926a12.387,12.387,0,0,1-20.16,9.667,1.2,1.2,0,0,1-.092-1.778l.563-.563a1.2,1.2,0,0,1,1.593-.1,9.19,9.19,0,1,0-.587-13.9L9.187,8.788a.8.8,0,0,1-.565,1.364H1.362a.8.8,0,0,1-.8-.8V2.092a.8.8,0,0,1,1.364-.565L4.393,3.993a12.386,12.386,0,0,1,20.943,8.933ZM16.3,16.86l.491-.631a1.2,1.2,0,0,0-.21-1.682l-2.033-1.581V7.755a1.2,1.2,0,0,0-1.2-1.2h-.8a1.2,1.2,0,0,0-1.2,1.2V14.53l3.267,2.541A1.2,1.2,0,0,0,16.3,16.86Z" transform="translate(182.438 1383.194)" fill="rgba(20,28,38,0.87)"/><g transform="translate(242 1332.596)"><path d="M.668,3.195H18.041a.725.725,0,0,0,.668-.771V.771A.725.725,0,0,0,18.041,0H.668A.725.725,0,0,0,0,.771V2.424A.725.725,0,0,0,.668,3.195ZM18.041,13.552H.668A.725.725,0,0,0,0,14.323v1.653a.725.725,0,0,0,.668.771H18.041a.725.725,0,0,0,.668-.771V14.323A.725.725,0,0,0,18.041,13.552Z" transform="translate(0 0)" fill="rgba(20,28,38,0.87)"/><path d="M18.041,0H.668A.725.725,0,0,0,0,.771V2.424a.725.725,0,0,0,.668.771H18.041a.725.725,0,0,0,.668-.771V.771A.725.725,0,0,0,18.041,0Z" transform="translate(0 6.968)" fill="rgba(20,28,38,0.87)"/></g><g transform="translate(44 1333.596)"><path d="M24.979,10.346l-5.634,5.739c-.042.042-1.058,1.084-1.1,1.126l-.958.974a4.216,4.216,0,0,1-3.005,1.267,4.3,4.3,0,0,1-3.068-1.3l-.922-.937c-.042-.042-1.063-1.084-1.1-1.126L3.553,10.346a.1.1,0,0,0-.178.073V21.9a1.68,1.68,0,0,0,1.676,1.676H23.481A1.68,1.68,0,0,0,25.157,21.9V10.419A.1.1,0,0,0,24.979,10.346Z" transform="translate(-3.375 -8.498)" fill="rgba(20,28,38,0.87)"/><path d="M14.483,17.462a2.847,2.847,0,0,0,2.047-.859l8.215-8.362a1.646,1.646,0,0,0-1.037-.367H5.263a1.635,1.635,0,0,0-1.037.367L12.441,16.6A2.847,2.847,0,0,0,14.483,17.462Z" transform="translate(-3.592 -7.875)" fill="rgba(20,28,38,0.87)"/></g><path d="M28.516,17.589a3.369,3.369,0,0,1,2.161-3.143,13.352,13.352,0,0,0-1.616-3.893,3.414,3.414,0,0,1-1.37.293,3.361,3.361,0,0,1-3.074-4.731A13.312,13.312,0,0,0,20.731,4.5a3.366,3.366,0,0,1-6.285,0,13.352,13.352,0,0,0-3.893,1.616,3.361,3.361,0,0,1-3.074,4.731,3.3,3.3,0,0,1-1.37-.293,13.647,13.647,0,0,0-1.609,3.9,3.367,3.367,0,0,1,.007,6.285,13.352,13.352,0,0,0,1.616,3.892,3.362,3.362,0,0,1,4.438,4.438,13.43,13.43,0,0,0,3.893,1.616,3.359,3.359,0,0,1,6.272,0,13.352,13.352,0,0,0,3.893-1.616,3.366,3.366,0,0,1,4.438-4.438,13.43,13.43,0,0,0,1.616-3.892A3.385,3.385,0,0,1,28.516,17.589ZM17.65,23.035A5.454,5.454,0,1,1,23.1,17.582,5.452,5.452,0,0,1,17.65,23.035Z" transform="translate(138.5 1324.096)" fill="rgba(20,28,38,0.87)"/><g transform="translate(195 1330.596)"><path d="M24.711,17.7a1.273,1.273,0,0,1,.173-.641,1.77,1.77,0,0,1,.11-.163,8.513,8.513,0,0,0,1.45-4.744,8.937,8.937,0,0,0-9.126-8.774,9.063,9.063,0,0,0-8.947,6.982,8.443,8.443,0,0,0-.194,1.8,8.912,8.912,0,0,0,8.984,8.884,10.82,10.82,0,0,0,2.48-.4c.594-.163,1.182-.378,1.334-.436a1.389,1.389,0,0,1,.489-.089,1.366,1.366,0,0,1,.531.105l2.979,1.056a.71.71,0,0,0,.2.053.418.418,0,0,0,.42-.42.675.675,0,0,0-.026-.142Z" transform="translate(-4.589 -3.375)" fill="rgba(20,28,38,0.87)"/><path d="M17.586,23.882c-.189.053-.431.11-.693.168a9.7,9.7,0,0,1-1.786.236A8.912,8.912,0,0,1,6.123,15.4,9.933,9.933,0,0,1,6.2,14.279c.032-.226.068-.452.121-.672.053-.236.116-.473.184-.7l-.42.373a7.818,7.818,0,0,0-2.711,5.879,7.731,7.731,0,0,0,1.3,4.308c.121.184.189.326.168.42s-.625,3.257-.625,3.257a.421.421,0,0,0,.142.4.428.428,0,0,0,.268.095.377.377,0,0,0,.152-.032L7.73,26.446a.821.821,0,0,1,.63.011,8.842,8.842,0,0,0,3.189.63,8.251,8.251,0,0,0,6.31-2.895s.168-.231.363-.5C18.027,23.756,17.807,23.825,17.586,23.882Z" transform="translate(-3.375 -5.784)" fill="rgba(20,28,38,0.87)"/></g><g transform="translate(92 1328.596)"><path d="M28.874,24.162a21.09,21.09,0,0,0-4.406-2.948c-1.32-.634-1.8-.621-2.739.052-.778.562-1.281,1.085-2.177.889s-2.66-1.53-4.373-3.236-3.046-3.477-3.236-4.373.333-1.4.889-2.177c.673-.935.693-1.418.052-2.739A20.673,20.673,0,0,0,9.938,5.226c-.961-.961-1.177-.752-1.706-.562a9.708,9.708,0,0,0-1.562.83A4.713,4.713,0,0,0,4.793,7.474c-.373.8-.8,2.3,1.392,6.21a34.649,34.649,0,0,0,6.092,8.125h0l.007.007.007.007h0a34.784,34.784,0,0,0,8.125,6.092c3.909,2.2,5.406,1.765,6.21,1.392a4.632,4.632,0,0,0,1.981-1.876,9.708,9.708,0,0,0,.83-1.562C29.625,25.338,29.841,25.123,28.874,24.162Z" transform="translate(-4.49 -4.502)" fill="rgba(20,28,38,0.87)"/></g><g transform="translate(287 1338.596)"><path d="M17.814,15.328a2.5,2.5,0,1,0,2.5,2.5,2.5,2.5,0,0,0-2.5-2.5Z" transform="translate(-7.314 -15.328)" fill="rgba(20,28,38,0.87)"/><path d="M7,15.328a2.5,2.5,0,1,0,2.5,2.5,2.5,2.5,0,0,0-2.5-2.5Z" transform="translate(-4.5 -15.328)" fill="rgba(20,28,38,0.87)"/><path d="M28.656,15.328a2.5,2.5,0,1,0,2.5,2.5,2.5,2.5,0,0,0-2.5-2.5Z" transform="translate(-10.156 -15.328)" fill="rgba(20,28,38,0.87)"/></g><g transform="translate(260.852 1298.932) rotate(180)"><path d="M4.514,9.7l7.342-7.337C12.4,1.82,11.23.942,10.687.405a1.393,1.393,0,0,0-1.964,0L.4,8.718a1.384,1.384,0,0,0-.04,1.912L8.717,19a1.395,1.395,0,0,0,1.964,0c.543-.543,1.713-1.421,1.17-1.958Z" transform="translate(0 0)" fill="rgba(20,28,38,0.87)"/><path d="M.58,10.946l9.7,8.084a1.618,1.618,0,0,0,2.652-1.243V1.619A1.618,1.618,0,0,0,10.28.376L.58,8.46a1.622,1.622,0,0,0,0,2.486Z" transform="translate(9.919 0)" fill="rgba(20,28,38,0.87)"/></g><g transform="translate(285 1279.526)"><path d="M15.568,15.471l7.023-7.017c.519-.519-.6-1.359-1.119-1.873a1.332,1.332,0,0,0-1.879,0l-7.956,7.951a1.324,1.324,0,0,0-.039,1.829l7.99,8.006a1.334,1.334,0,0,0,1.879,0c.519-.519,1.638-1.359,1.119-1.873Z" transform="translate(-11.251 -6.194)" fill="rgba(20,28,38,0.87)"/><path d="M.556,14.965,9.834,22.7a1.547,1.547,0,0,0,2.537-1.189V6.045A1.547,1.547,0,0,0,9.834,4.856L.556,12.588a1.551,1.551,0,0,0,0,2.377Z" transform="translate(9.486 -4.496)" fill="rgba(20,28,38,0.87)"/></g><path d="M15.467,7.5H4.5V18.873c0,6.763,5.484,9.358,10.967,9.358s10.967-2.6,10.967-9.358V7.5ZM13.842,22.935,8.968,18.061l1.718-1.718,3.156,3.144,7.03-7.03,1.718,1.73Z" transform="translate(40.5 1271.026)" fill="rgba(20,28,38,0.87)"/><g transform="translate(91 1277.526)"><path d="M12.893,7.7H8.43V3.242a.992.992,0,0,0-.992-.992H6.447a.992.992,0,0,0-.992.992V7.7H.992A.992.992,0,0,0,0,8.7v.992a.992.992,0,0,0,.992.992H5.455v4.463a.992.992,0,0,0,.992.992h.992a.992.992,0,0,0,.992-.992V10.68h4.463a.992.992,0,0,0,.992-.992V8.7A.992.992,0,0,0,12.893,7.7Z" transform="translate(4.853 2.603)" fill="rgba(20,28,38,0.87)"/><g transform="translate(0 0)"><path d="M8.9,3h11.8a5.9,5.9,0,0,1,5.9,5.9v11.8a5.9,5.9,0,0,1-5.9,5.9H8.9a5.9,5.9,0,0,1-5.9-5.9V8.9A5.9,5.9,0,0,1,8.9,3Z" transform="translate(-3 -3)" fill="none" stroke="rgba(20,28,38,0.87)" stroke-linecap="round" stroke-linejoin="round" stroke-width="3"/></g></g><g transform="translate(139 1276.526)"><path d="M22.1,6.571a5.193,5.193,0,0,1,5.178,5.178V22.1A5.193,5.193,0,0,1,22.1,27.283H11.749A5.193,5.193,0,0,1,6.571,22.1V11.749a5.193,5.193,0,0,1,5.178-5.178H22.1m0-2.071H11.749A7.27,7.27,0,0,0,4.5,11.749V22.1a7.27,7.27,0,0,0,7.249,7.249H22.1A7.27,7.27,0,0,0,29.354,22.1V11.749A7.27,7.27,0,0,0,22.1,4.5Z" transform="translate(-4.5 -4.5)" fill="rgba(20,28,38,0.87)"/><path d="M0,11.074V1.038A1.038,1.038,0,0,1,1.038,0H7.267A1.038,1.038,0,0,1,8.305,1.038V11.074L4.153,8.652Z" transform="translate(8.274 6.89)" fill="rgba(20,28,38,0.87)"/></g><path d="M25.427,4.5H4.054A1.154,1.154,0,0,0,2.948,5.7v.4H1.106A1.154,1.154,0,0,0,0,7.292v13.56a2.692,2.692,0,0,0,2.58,2.792H24.321a2.307,2.307,0,0,0,2.211-2.393V5.7A1.154,1.154,0,0,0,25.427,4.5ZM2.58,21.251a.385.385,0,0,1-.369-.4V8.488h.737V20.852A.385.385,0,0,1,2.58,21.251Zm10.871-.8h-7a.577.577,0,0,1-.553-.6v-.4a.577.577,0,0,1,.553-.6h7a.577.577,0,0,1,.553.6v.4A.577.577,0,0,1,13.45,20.453Zm9.581,0h-7a.577.577,0,0,1-.553-.6v-.4a.577.577,0,0,1,.553-.6h7a.577.577,0,0,1,.553.6v.4A.577.577,0,0,1,23.031,20.453ZM13.45,15.667h-7a.577.577,0,0,1-.553-.6v-.4a.577.577,0,0,1,.553-.6h7a.577.577,0,0,1,.553.6v.4A.577.577,0,0,1,13.45,15.667Zm9.581,0h-7a.577.577,0,0,1-.553-.6v-.4a.577.577,0,0,1,.553-.6h7a.577.577,0,0,1,.553.6v.4A.577.577,0,0,1,23.031,15.667Zm0-4.786H6.449a.577.577,0,0,1-.553-.6V8.289a.577.577,0,0,1,.553-.6H23.031a.577.577,0,0,1,.553.6v1.994A.577.577,0,0,1,23.031,10.881Z" transform="translate(188 1275.026)" fill="rgba(20,28,38,0.87)"/><path d="M12.313,0A9.262,9.262,0,0,0,3.078,9.235H0l4.617,6.156L9.235,9.235H6.156a6.135,6.135,0,0,1,6.156-6.156Zm7.011,3.078L14.707,9.235h3.078a6.135,6.135,0,0,1-6.156,6.156v3.078a9.262,9.262,0,0,0,9.235-9.235h3.078Z" transform="translate(86.5 1546.8)" fill="none" stroke="rgba(20,28,38,0.87)" stroke-width="1.3"/><g transform="translate(171 1544.3)"><path d="M28,7.847H3.614a.24.24,0,0,1-.239-.239v-1.2A1.91,1.91,0,0,1,5.287,4.5H26.323a1.91,1.91,0,0,1,1.912,1.912v1.2A.24.24,0,0,1,28,7.847Z" transform="translate(-3.375 -4.5)" fill="rgba(20,28,38,0.87)"/><g transform="translate(-3.544 -5.365)" fill="none"><path d="M26.97,10.266H4.978a.479.479,0,0,0-.478.478V26.4a1.918,1.918,0,0,0,1.912,1.912H25.536A1.918,1.918,0,0,0,27.448,26.4V10.744A.479.479,0,0,0,26.97,10.266Zm-8.008,6.786H13.01a.858.858,0,0,1-.855-.735.836.836,0,0,1,.831-.938h5.952a.858.858,0,0,1,.855.735A.839.839,0,0,1,18.962,17.052Z" stroke="none"/><path d="M 6.500001907348633 12.26562881469727 L 6.500001907348633 26.31349945068359 L 25.44828033447266 26.31349945068359 L 25.44828033447266 12.26562881469727 L 6.500001907348633 12.26562881469727 M 18.96220016479492 19.05183792114258 L 13.00999069213867 19.05183792114258 C 11.57115173339844 19.05183792114258 10.35077095031738 17.98415756225586 10.1712818145752 16.56830787658691 L 10.16910171508789 16.55044746398926 C 10.07424163818359 15.74411773681641 10.32822036743164 14.93486785888672 10.86593055725098 14.33019828796387 C 11.40375137329102 13.72538757324219 12.17652130126953 13.37851905822754 12.98608016967773 13.37851905822754 L 18.93829154968262 13.37851905822754 C 20.37713241577148 13.37851905822754 21.59751129150391 14.44620895385742 21.77700042724609 15.86205863952637 L 21.77886199951172 15.87716865539551 C 21.87468147277832 16.68210792541504 21.6208610534668 17.49149894714355 21.08246231079102 18.09778785705566 C 20.54405212402344 18.70409774780273 19.771240234375 19.05183792114258 18.96220016479492 19.05183792114258 M 4.978090286254883 10.26562881469727 L 26.97019195556641 10.26562881469727 C 27.23314094543457 10.26562881469727 27.44828033447266 10.48076820373535 27.44828033447266 10.74370765686035 L 27.44828033447266 26.40113830566406 C 27.44828033447266 27.45292854309082 26.58772087097168 28.31349945068359 25.53592109680176 28.31349945068359 L 6.412361145019531 28.31349945068359 C 5.360561370849609 28.31349945068359 4.500001907348633 27.45292854309082 4.500001907348633 26.40113830566406 L 4.500001907348633 10.74370765686035 C 4.500001907348633 10.48076820373535 4.715141296386719 10.26562881469727 4.978090286254883 10.26562881469727 Z M 18.96220016479492 17.05183792114258 C 19.45820999145508 17.05183792114258 19.85264205932617 16.61557769775391 19.79288101196289 16.11358833312988 C 19.73908996582031 15.68927764892578 19.36260223388672 15.37851905822754 18.93829154968262 15.37851905822754 L 12.98608016967773 15.37851905822754 C 12.49007034301758 15.37851905822754 12.09564018249512 15.80879783630371 12.1554012298584 16.3167781829834 C 12.20919036865234 16.74107933044434 12.5856819152832 17.05183792114258 13.00999069213867 17.05183792114258 L 18.96220016479492 17.05183792114258 Z" stroke="none" fill="rgba(20,28,38,0.87)"/></g></g><g transform="translate(303.413 1547.258) rotate(90)"><path d="M.635,2.458H17.149a.689.689,0,0,0,.635-.733V.733A.689.689,0,0,0,17.149,0H.635A.689.689,0,0,0,0,.733v.992A.689.689,0,0,0,.635,2.458Z" transform="translate(0 0)" fill="rgba(20,28,38,0.87)"/><path d="M17.149,0H.635A.689.689,0,0,0,0,.733v.992a.689.689,0,0,0,.635.733H17.149a.689.689,0,0,0,.635-.733V.733A.689.689,0,0,0,17.149,0Z" transform="translate(0 6.044)" fill="rgba(20,28,38,0.87)"/></g><path d="M12.725,0A9.572,9.572,0,0,0,3.181,9.544H0l4.772,6.362L9.544,9.544H6.362a6.34,6.34,0,0,1,6.362-6.362Zm7.246,3.181L15.2,9.544H18.38a6.34,6.34,0,0,1-6.362,6.362v3.181a9.572,9.572,0,0,0,9.544-9.544h3.181Z" transform="translate(44 1546.3)" fill="rgba(20,28,38,0.87)"/><g transform="translate(128 1544.3)"><path d="M28.8,7.956H3.622a.248.248,0,0,1-.247-.247V6.475A1.973,1.973,0,0,1,5.35,4.5H27.075A1.973,1.973,0,0,1,29.05,6.475V7.709A.248.248,0,0,1,28.8,7.956Z" transform="translate(-3.375 -4.5)" fill="rgba(20,28,38,0.87)"/><path d="M27.707,10.266H4.994a.5.5,0,0,0-.494.494V26.93A1.981,1.981,0,0,0,6.475,28.9h19.75A1.981,1.981,0,0,0,28.2,26.93V10.759A.5.5,0,0,0,27.707,10.266ZM19.436,16.4H13.289a.886.886,0,0,1-.883-.759.864.864,0,0,1,.858-.969h6.147a.886.886,0,0,1,.883.759A.867.867,0,0,1,19.436,16.4Z" transform="translate(-3.512 -5.205)" fill="rgba(20,28,38,0.87)"/></g><path d="M8.411,22.368.363,14.32a1.238,1.238,0,0,1,0-1.751l1.751-1.751a1.238,1.238,0,0,1,1.751,0L9.286,16.24l9.549-12.3a1.238,1.238,0,0,1,1.751,0L22.337,5a1.238,1.238,0,0,1,0,1.751l-10.8,15.614A3.551,3.551,0,0,1,8.411,22.368Z" transform="translate(254 1542.722)" fill="rgba(20,28,38,0.87)"/><g transform="translate(213 1537.795)"><path d="M21.86,3.021H.212A.215.215,0,0,1,0,2.8V1.726A1.71,1.71,0,0,1,1.7,0H20.375a1.71,1.71,0,0,1,1.7,1.726V2.8A.215.215,0,0,1,21.86,3.021Z" transform="matrix(0.921, 0.391, -0.391, 0.921, 2.471, 0)" fill="rgba(20,28,38,0.87)"/><g transform="translate(-4.5 2.146)" fill="none"><path d="M25.717,10.266H4.951a.453.453,0,0,0-.451.451V25.5a1.811,1.811,0,0,0,1.806,1.806H24.362A1.811,1.811,0,0,0,26.168,25.5V10.717A.453.453,0,0,0,25.717,10.266Zm-7.561,6.605h-5.62a.81.81,0,0,1-.807-.694.79.79,0,0,1,.784-.886h5.62a.81.81,0,0,1,.807.694A.793.793,0,0,1,18.155,16.871Z" stroke="none"/><path d="M 6.5 12.26562881469727 L 6.5 25.30672836303711 L 24.16815948486328 25.30672836303711 L 24.16815948486328 12.26562881469727 L 6.5 12.26562881469727 M 18.15544891357422 18.87075805664062 L 12.53527069091797 18.87075805664062 C 11.12064933776855 18.87075805664062 9.920770645141602 17.82069778442383 9.744239807128906 16.42823791503906 L 9.742059707641602 16.41034889221191 C 9.648778915405273 15.61738777160645 9.898599624633789 14.82151794433594 10.42745971679688 14.22679901123047 C 10.95643043518066 13.63194847106934 11.71648025512695 13.2907886505127 12.51269912719727 13.2907886505127 L 18.13288116455078 13.2907886505127 C 19.54751014709473 13.2907886505127 20.74739074707031 14.34084892272949 20.92391967773438 15.73331832885742 L 20.92577934265137 15.74840927124023 C 21.0200309753418 16.54008865356445 20.77038955688477 17.33613777160645 20.24086952209473 17.93243789672852 C 19.71133995056152 18.52874946594238 18.95122909545898 18.87075805664062 18.15544891357422 18.87075805664062 M 4.951419830322266 10.26562881469727 L 25.71673965454102 10.26562881469727 C 25.96501922607422 10.26562881469727 26.16815948486328 10.46875953674316 26.16815948486328 10.71704864501953 L 26.16815948486328 25.50104904174805 C 26.16815948486328 26.49416732788086 25.35560035705566 27.30672836303711 24.36248016357422 27.30672836303711 L 6.305679321289062 27.30672836303711 C 5.312559127807617 27.30672836303711 4.5 26.49416732788086 4.5 25.50104904174805 L 4.5 10.71704864501953 C 4.5 10.46875953674316 4.703140258789062 10.26562881469727 4.951419830322266 10.26562881469727 Z M 18.15544891357422 16.87075805664062 C 18.62379837036133 16.87075805664062 18.99623107910156 16.45883941650391 18.93980026245117 15.98484802246094 C 18.88900947570801 15.58420944213867 18.53351974487305 15.2907886505127 18.13288116455078 15.2907886505127 L 12.51269912719727 15.2907886505127 C 12.04435920715332 15.2907886505127 11.67193984985352 15.69706916809082 11.72835922241211 16.17669868469238 C 11.77915000915527 16.57732772827148 12.13463973999023 16.87075805664062 12.53527069091797 16.87075805664062 L 18.15544891357422 16.87075805664062 Z" stroke="none" fill="rgba(20,28,38,0.87)"/></g></g><path d="M12.352,7.373l-8.123,6.69v7.221a.7.7,0,0,0,.7.7l4.937-.013a.7.7,0,0,0,.7-.7V17.055a.7.7,0,0,1,.7-.7H14.1a.7.7,0,0,1,.7.7v4.214a.7.7,0,0,0,.7.707l4.935.014a.7.7,0,0,0,.7-.7V14.059L13.026,7.373A.537.537,0,0,0,12.352,7.373Zm12.831,4.547L21.5,8.885v-6.1a.529.529,0,0,0-.529-.529H18.5a.529.529,0,0,0-.529.529v3.2L14.031,2.736a2.115,2.115,0,0,0-2.688,0L.191,11.921a.529.529,0,0,0-.07.745l1.123,1.366a.529.529,0,0,0,.745.072L12.352,5.567a.537.537,0,0,1,.674,0L23.39,14.1a.529.529,0,0,0,.745-.07l1.123-1.366a.529.529,0,0,0-.075-.746Z" transform="translate(239.001 1433.046)" fill="rgba(20,28,38,0.87)"/><path d="M5.02,7.039H3V21.177A2.026,2.026,0,0,0,5.02,23.2H19.157v-2.02H5.02ZM21.177,3H9.059a2.026,2.026,0,0,0-2.02,2.02V17.138a2.026,2.026,0,0,0,2.02,2.02H21.177a2.026,2.026,0,0,0,2.02-2.02V5.02A2.026,2.026,0,0,0,21.177,3Zm-1.01,9.088h-10.1v-2.02h10.1Zm-4.039,4.039H10.069v-2.02h6.059Zm4.039-8.079h-10.1V6.029h10.1Z" transform="translate(283 1432.3)" fill="rgba(20,28,38,0.87)"/><path d="M10.765,15.442a3.971,3.971,0,1,0-3.971-3.971A3.954,3.954,0,0,0,10.765,15.442Zm0,1.765c-3.084,0-9.265,1.549-9.265,4.633v4.192H20.031V21.839C20.031,18.755,13.85,17.207,10.765,17.207Z" transform="translate(196.5 1428.8)" fill="rgba(20,28,38,0.87)"/><path d="M13.122,16.845,5.365,24.6a1.363,1.363,0,0,1-1.934,0L2.142,23.314a1.363,1.363,0,0,1,0-1.934l5.5-5.5-5.5-5.5a1.363,1.363,0,0,1,0-1.934l1.283-1.3a1.363,1.363,0,0,1,1.934,0l7.757,7.757A1.365,1.365,0,0,1,13.122,16.845Z" transform="translate(287.164 1223.553)" fill="rgba(20,28,38,0.87)"/><path d="M18.919,18.751H6.9v-2.4l3.6-6.008,4.938,6.008,3.474-2.4Zm0-7.811a1.8,1.8,0,1,1-1.8-1.8A1.8,1.8,0,0,1,18.919,10.941ZM20.53,6.229a17.025,17.025,0,0,0-1.637-1.872A17.029,17.029,0,0,0,17.021,2.72a3,3,0,0,0-1.707-.792H6a1.5,1.5,0,0,0-1.5,1.5V19.653a1.5,1.5,0,0,0,1.5,1.5H19.82a1.5,1.5,0,0,0,1.5-1.5V7.936a3,3,0,0,0-.792-1.707ZM18.043,5.207a16.388,16.388,0,0,1,1.363,1.528H16.515V3.844a16.372,16.372,0,0,1,1.528,1.363ZM20.12,19.653a.3.3,0,0,1-.3.3H6a.3.3,0,0,1-.3-.3V3.43a.3.3,0,0,1,.3-.3h9.313V7.336a.6.6,0,0,0,.6.6H20.12Z" transform="translate(39.501 1433.372)" fill="rgba(20,28,38,0.87)"/><g transform="translate(-16.086 -150.039)"><path d="M24.118,6H15" transform="translate(168.151 1581.339)" fill="none" stroke="rgba(20,28,38,0.87)" stroke-linecap="round" stroke-linejoin="round" stroke-width="2"/><path d="M16.618,30H7.5" transform="translate(170.586 1573.548)" fill="none" stroke="rgba(20,28,38,0.87)" stroke-linecap="round" stroke-linejoin="round" stroke-width="2"/><path d="M19.578,6,13.5,22.209" transform="translate(168.638 1581.339)" fill="none" stroke="rgba(20,28,38,0.87)" stroke-linecap="round" stroke-linejoin="round" stroke-width="2"/></g><path d="M9.842,5.9a.713.713,0,0,0-.712.712v8.879a3.683,3.683,0,0,1-1,2.516A3.615,3.615,0,0,1,5.59,19.086H4.969a3.55,3.55,0,0,1-2.5-1.124,3.667,3.667,0,0,1-1.092-2.521V3.987a2.482,2.482,0,0,1,.79-1.8,2.717,2.717,0,0,1,1.873-.744A2.542,2.542,0,0,1,6.6,3.987v10.7A1.444,1.444,0,0,1,5.28,16.154a1.4,1.4,0,0,1-1.288-1.471v-6.1a.712.712,0,0,0-1.425,0v6.1A2.74,2.74,0,0,0,7.23,16.739a2.885,2.885,0,0,0,.8-2.055V3.987A3.94,3.94,0,0,0,6.855,1.165a4.036,4.036,0,0,0-5.672,0A3.94,3.94,0,0,0,0,3.992V15.446a5.1,5.1,0,0,0,1.489,3.562,4.937,4.937,0,0,0,3.476,1.457h.621A4.989,4.989,0,0,0,9.052,19a5.131,5.131,0,0,0,1.092-1.58A4.782,4.782,0,0,0,10.55,15.5V6.609A.707.707,0,0,0,9.842,5.9Z" transform="translate(131.155 1434.3) rotate(40)" fill="rgba(20,28,38,0.87)"/><path d="M12.9,9.844a4.5,4.5,0,0,0,1-2.4A4.721,4.721,0,0,0,9.207,2.25H1.855a.59.59,0,0,0-.59.59V4.609a.59.59,0,0,0,.59.59H3.03V15.816H1.855a.59.59,0,0,0-.59.59v1.769a.59.59,0,0,0,.59.59H9.572a5.155,5.155,0,0,0,5.2-4.512A5,5,0,0,0,12.9,9.844ZM5.972,5.2H9.207a1.769,1.769,0,0,1,0,3.539H5.972ZM9.207,15.816H5.972V11.687H9.207a2.064,2.064,0,0,1,0,4.129Z" transform="translate(81.734 1435.05)" fill="rgba(20,28,38,0.87)"/><g transform="translate(182 1486.529)" fill="none"><path d="M18.524,3.831l4.15,4.15a.45.45,0,0,1,0,.635L12.626,18.665l-4.27.474a.9.9,0,0,1-.989-.989l.474-4.27L17.889,3.831A.45.45,0,0,1,18.524,3.831Zm7.454-1.054L23.733.532a1.8,1.8,0,0,0-2.54,0L19.564,2.16a.45.45,0,0,0,0,.635l4.15,4.15a.45.45,0,0,0,.635,0l1.629-1.629a1.8,1.8,0,0,0,0-2.54Zm-8.31,13.155v4.684H2.945V5.892H13.518a.566.566,0,0,0,.391-.161l1.84-1.84a.552.552,0,0,0-.391-.943H2.209A2.209,2.209,0,0,0,0,5.156v16.2A2.209,2.209,0,0,0,2.209,23.56H18.4a2.209,2.209,0,0,0,2.209-2.209V14.091a.553.553,0,0,0-.943-.391l-1.84,1.84A.566.566,0,0,0,17.669,15.932Z" stroke="none"/><path d="M 22.46298789978027 2.090061187744141 L 22.07518577575684 2.477863311767578 L 24.031982421875 4.434669494628906 L 24.41978073120117 4.046871185302734 L 22.46298789978027 2.090061187744141 M 18.20689010620117 6.341550827026367 L 9.750804901123047 14.79763412475586 L 9.506494522094727 16.99874496459961 L 11.70761775970459 16.75444030761719 L 20.16369819641113 8.298360824584961 L 18.20689010620117 6.341550827026367 M 22.46470832824707 0.007030487060546875 C 22.92425346374512 0.007030487060546875 23.38322448730469 0.1818752288818359 23.73291397094727 0.5315666198730469 L 25.9782829284668 2.776945114135742 C 26.67766380310059 3.476325988769531 26.67766380310059 4.612815856933594 25.9782829284668 5.316795349121094 L 24.34947395324707 6.945615768432617 C 24.17462348937988 7.120454788208008 23.88935470581055 7.120454788208008 23.71450424194336 6.945615768432617 L 19.56424331665039 2.795345306396484 C 19.3893928527832 2.620506286621094 19.3893928527832 2.335226058959961 19.56424331665039 2.160385131835938 L 21.19305419921875 0.5315666198730469 C 21.5450439453125 0.1818752288818359 22.00516319274902 0.007030487060546875 22.46470832824707 0.007030487060546875 Z M 2.208564758300781 2.947185516357422 L 15.35875415802002 2.947185516357422 C 15.85108375549316 2.947185516357422 16.09954452514648 3.540735244750977 15.74985408782959 3.890426635742188 L 13.90938377380371 5.730905532836914 C 13.80355358123779 5.832126617431641 13.66551399230957 5.891944885253906 13.51828384399414 5.891944885253906 L 2.94476318359375 5.891944885253906 L 2.94476318359375 20.61572647094727 L 17.66855239868164 20.61572647094727 L 17.66855239868164 15.93172645568848 C 17.66855239868164 15.78448581695557 17.72836303710938 15.64645576477051 17.82959365844727 15.54062557220459 L 19.67006301879883 13.70015621185303 C 20.01975250244141 13.35506248474121 20.61331367492676 13.59892559051514 20.61331367492676 14.0912561416626 L 20.61331367492676 21.35191535949707 C 20.61331367492676 22.57123565673828 19.62405395507812 23.56048583984375 18.40474319458008 23.56048583984375 L 2.208564758300781 23.56048583984375 C 0.9892539978027344 23.56048583984375 3.814697265625e-06 22.57123565673828 3.814697265625e-06 21.35191535949707 L 3.814697265625e-06 5.155755996704102 C 3.814697265625e-06 3.936445236206055 0.9892539978027344 2.947185516357422 2.208564758300781 2.947185516357422 Z M 18.20689010620117 3.699478149414062 C 18.32191848754883 3.699478149414062 18.43694877624512 3.743190765380859 18.52437400817871 3.830615997314453 L 22.67463302612305 7.980875968933105 C 22.84948348999023 8.155725479125977 22.84948348999023 8.440996170043945 22.67463302612305 8.615845680236816 L 12.62565422058105 18.66482543945312 L 8.355752944946289 19.13874626159668 C 7.785205841064453 19.20317077636719 7.302083969116211 18.72004508972168 7.366493225097656 18.14949607849121 L 7.840423583984375 13.87959575653076 L 17.889404296875 3.830615997314453 C 17.97682952880859 3.743190765380859 18.09185791015625 3.699478149414062 18.20689010620117 3.699478149414062 Z" stroke="none" fill="rgba(20,28,38,0.87)"/></g><g transform="translate(87 1484.536)" fill="none"><path d="M19.021,17.292a5.165,5.165,0,0,0-3.231,1.129L10.252,14.96a5.217,5.217,0,0,0,0-2.252L15.79,9.246a5.178,5.178,0,1,0-1.834-2.932L8.418,9.775a5.188,5.188,0,1,0,0,8.117l5.538,3.461a5.188,5.188,0,1,0,5.065-4.061Z" stroke="none"/><path d="M 19.02119445800781 24.66719818115234 C 20.2274341583252 24.66719818115234 21.20878410339355 23.68584823608398 21.20878410339355 22.47959899902344 C 21.20878410339355 21.27334976196289 20.2274341583252 20.29199981689453 19.02119445800781 20.29199981689453 C 18.38885307312012 20.29199981689453 17.9321346282959 20.55027961730957 17.66033363342285 20.76694869995117 L 17.05160331726074 21.2522144317627 L 16.88568305969238 22.00177955627441 C 16.85107421875 22.15811920166016 16.83354377746582 22.31859970092773 16.83359336853027 22.47959899902344 C 16.83359336853027 23.68584823608398 17.81494331359863 24.66719818115234 19.02119445800781 24.66719818115234 M 5.187593936920166 16.02119827270508 C 5.819933891296387 16.02119827270508 6.27665376663208 15.76291942596436 6.548453807830811 15.54624938964844 L 7.157431125640869 15.060791015625 L 7.322934150695801 14.31217956542969 C 7.392163753509521 13.99906921386719 7.392163753509521 13.66806888580322 7.322934150695801 13.35494899749756 L 7.157448768615723 12.60642147064209 L 6.548453807830811 12.12094879150391 C 6.27665376663208 11.90427875518799 5.819933891296387 11.64599895477295 5.187593936920166 11.64599895477295 C 3.981353998184204 11.64599895477295 3.000004053115845 12.62734889984131 3.000004053115845 13.83359909057617 C 3.000004053115845 15.03984928131104 3.981353998184204 16.02119827270508 5.187593936920166 16.02119827270508 M 19.02119445800781 7.375199317932129 C 20.2274341583252 7.375199317932129 21.20878410339355 6.393848896026611 21.20878410339355 5.187599182128906 C 21.20878410339355 3.981348991394043 20.2274341583252 2.999999046325684 19.02119445800781 2.999999046325684 C 17.81494331359863 2.999999046325684 16.83359336853027 3.981348991394043 16.83359336853027 5.187599182128906 C 16.83359336853027 5.348568916320801 16.85110473632812 5.509269237518311 16.88563346862793 5.665229320526123 L 17.0516357421875 6.414911270141602 L 17.66043472290039 6.900269031524658 C 17.93219375610352 7.116929054260254 18.38887405395508 7.375199317932129 19.02119445800781 7.375199317932129 M 19.02119445800781 27.66719818115234 C 16.15617370605469 27.66719818115234 13.83359432220459 25.34460830688477 13.83359432220459 22.47959899902344 C 13.83348369598389 22.10083961486816 13.87472438812256 21.72320938110352 13.95658397674561 21.3533992767334 L 8.41849422454834 17.89208984375 C 7.532124042510986 18.59867858886719 6.409274101257324 19.02119827270508 5.187593936920166 19.02119827270508 C 2.322583913803101 19.02119827270508 3.959045443480136e-06 16.6986083984375 3.959045443480136e-06 13.83359909057617 C 3.959045443480136e-06 10.96858882904053 2.322583913803101 8.645998954772949 5.187593936920166 8.645998954772949 C 6.409274101257324 8.645998954772949 7.532124042510986 9.06851863861084 8.41849422454834 9.77510929107666 L 13.95658397674561 6.313798904418945 C 13.87628364562988 5.951148986816406 13.83359432220459 5.574398994445801 13.83359432220459 5.187599182128906 C 13.83359432220459 2.322589159011841 16.15617370605469 -9.094238180296088e-07 19.02119445800781 -9.094238180296088e-07 C 21.88620376586914 -9.094238180296088e-07 24.20878410339355 2.322589159011841 24.20878410339355 5.187599182128906 C 24.20878410339355 8.052609443664551 21.88620376586914 10.37519931793213 19.02119445800781 10.37519931793213 C 17.79951477050781 10.37519931793213 16.67666435241699 9.952678680419922 15.79029369354248 9.246028900146484 L 10.25220394134521 12.70734882354736 C 10.41621398925781 13.44920921325684 10.41621398925781 14.21793937683105 10.25220394134521 14.95978927612305 L 15.79029369354248 18.42110824584961 C 16.67666435241699 17.71451950073242 17.79951477050781 17.29199981689453 19.02119445800781 17.29199981689453 C 21.88620376586914 17.29199981689453 24.20878410339355 19.61458969116211 24.20878410339355 22.47959899902344 C 24.20878410339355 25.34460830688477 21.88620376586914 27.66719818115234 19.02119445800781 27.66719818115234 Z" stroke="none" fill="rgba(20,28,38,0.87)"/></g><path d="M18.524,3.831l4.15,4.15a.45.45,0,0,1,0,.635L12.626,18.665l-4.27.474a.9.9,0,0,1-.989-.989l.474-4.27L17.889,3.831A.45.45,0,0,1,18.524,3.831Zm7.454-1.054L23.733.532a1.8,1.8,0,0,0-2.54,0L19.564,2.16a.45.45,0,0,0,0,.635l4.15,4.15a.45.45,0,0,0,.635,0l1.629-1.629a1.8,1.8,0,0,0,0-2.54Zm-8.31,13.155v4.684H2.945V5.892H13.518a.566.566,0,0,0,.391-.161l1.84-1.84a.552.552,0,0,0-.391-.943H2.209A2.209,2.209,0,0,0,0,5.156v16.2A2.209,2.209,0,0,0,2.209,23.56H18.4a2.209,2.209,0,0,0,2.209-2.209V14.091a.553.553,0,0,0-.943-.391l-1.84,1.84A.566.566,0,0,0,17.669,15.932Z" transform="translate(133 1486.529)" fill="rgba(20,28,38,0.87)"/><path d="M0,11.787a2.422,2.422,0,0,0,2.406,2.354H7.77a2.642,2.642,0,0,0,.338,3.811A2.46,2.46,0,0,0,8.992,21.3c-.482,2.64,1.179,3.828,3.9,3.828.148,0,.713-.011.859-.01,3.329.009,4.13-1.669,6.646-2.058a1.288,1.288,0,0,0,1.089-1.273V12.571h0a2.578,2.578,0,0,0-1.529-2.355c-1.552-.7-5.125-2.634-5.776-4.153A2.29,2.29,0,0,0,12.032,4.5a2.58,2.58,0,0,0-2.37,3.594,7.3,7.3,0,0,0,.76,1.338H2.406A2.461,2.461,0,0,0,0,11.787Zm22.346.019V22.119a1.289,1.289,0,0,0,1.289,1.289h2.578A1.289,1.289,0,0,0,27.5,22.119V11.805a1.289,1.289,0,0,0-1.289-1.289H23.635A1.289,1.289,0,0,0,22.346,11.805Zm1.5,9.024A1.074,1.074,0,1,1,24.924,21.9,1.074,1.074,0,0,1,23.85,20.83Z" transform="translate(230 1484.036)" fill="rgba(20,28,38,0.87)"/><path d="M19.021,17.292a5.165,5.165,0,0,0-3.231,1.129L10.252,14.96a5.217,5.217,0,0,0,0-2.252L15.79,9.246a5.178,5.178,0,1,0-1.834-2.932L8.418,9.775a5.188,5.188,0,1,0,0,8.117l5.538,3.461a5.188,5.188,0,1,0,5.065-4.061Z" transform="translate(41 1484.536)" fill="rgba(20,28,38,0.87)"/><path d="M21.774.05.279,9.419a.493.493,0,0,0,.018.9L6.111,13.6a.938.938,0,0,0,1.072-.105L18.647,3.61c.076-.064.258-.187.328-.117s-.041.252-.105.328L8.951,14.993a.934.934,0,0,0-.094,1.118l3.8,6.1a.5.5,0,0,0,.89-.012L22.436.7A.493.493,0,0,0,21.774.05Z" transform="translate(287.688 1484.536) rotate(20)" fill="rgba(20,28,38,0.87)"/><path d="M15.809,5.8V.5L8.829,7.479l6.979,6.979V9.128A6.747,6.747,0,0,1,22.836,16.1c0,4.077-2.951,6.569-7.028,6.569S9.24,20.178,9.24,16.1H5.751c0,5.444,3.546,9.924,10.058,10.063S26.432,22.517,26.342,16.1A10.238,10.238,0,0,0,15.809,5.8Z" transform="translate(137.249 1226.8)" fill="rgba(20,28,38,0.87)"/><path d="M4.849,23.741H2.31A2.311,2.311,0,0,1,0,21.431V4.49A2.311,2.311,0,0,1,2.31,2.18H4.849a2.311,2.311,0,0,1,2.31,2.31V21.431A2.311,2.311,0,0,1,4.849,23.741Zm15.511-2.31V4.49a2.311,2.311,0,0,0-2.31-2.31H15.511A2.311,2.311,0,0,0,13.2,4.49V21.431a2.311,2.311,0,0,0,2.31,2.31H18.05A2.311,2.311,0,0,0,20.36,21.431Z" transform="translate(45 1227.12)" fill="rgba(20,28,38,0.87)"/><g transform="translate(-16 -150.7)"><g transform="translate(256 1373.43)" fill="none"><path d="M14.556,5.047,8.533,11.069H1.625A1.624,1.624,0,0,0,0,12.693v9.747a1.625,1.625,0,0,0,1.625,1.625H8.533l6.022,6.021a1.626,1.626,0,0,0,2.773-1.149V6.2A1.626,1.626,0,0,0,14.556,5.047Z" stroke="none"/><path d="M 15.32882499694824 7.101921081542969 L 9.361454010009766 13.06859588623047 L 2.000004768371582 13.06859588623047 L 2.000004768371582 22.06517601013184 L 9.361384391784668 22.06517601013184 L 15.32882499694824 28.03125190734863 L 15.32882499694824 7.101921081542969 M 15.69130706787109 4.570236206054688 C 16.52556610107422 4.570329666137695 17.32882499694824 5.213754653930664 17.32882499694824 6.196235656738281 L 17.32882499694824 28.93754577636719 C 17.32882499694824 30.38882637023926 15.5729341506958 31.10363388061523 14.55554389953613 30.08624649047852 L 8.53309440612793 24.06517601013184 L 1.624574661254883 24.06517601013184 C 0.7269935607910156 24.06517601013184 3.814697265625e-06 23.33750534057617 3.814697265625e-06 22.44060516357422 L 3.814697265625e-06 12.69316673278809 C 3.814697265625e-06 11.79559516906738 0.7269935607910156 11.06859588623047 1.624574661254883 11.06859588623047 L 8.53309440612793 11.06859588623047 L 14.55554389953613 5.046846389770508 C 14.88471603393555 4.717897415161133 15.29150199890137 4.570192337036133 15.69130706787109 4.570236206054688 Z" stroke="none" fill="rgba(20,28,38,0.87)"/></g><path d="M2,0H3.98a0,0,0,0,1,0,0V11.941a0,0,0,0,1,0,0H2a2,2,0,0,1-2-2V2A2,2,0,0,1,2,0Z" transform="translate(256.333 1385)" fill="rgba(20,28,38,0.87)"/></g><g transform="translate(193 1222.729)" fill="rgba(20,28,38,0.87)"><path d="M14.556,5.047,8.533,11.069H1.625A1.624,1.624,0,0,0,0,12.693v9.747a1.625,1.625,0,0,0,1.625,1.625H8.533l6.022,6.021a1.626,1.626,0,0,0,2.773-1.149V6.2A1.626,1.626,0,0,0,14.556,5.047Z" stroke="none"/><path d="M 15.32882499694824 7.101921081542969 L 9.361454010009766 13.06859588623047 L 2.000004768371582 13.06859588623047 L 2.000004768371582 22.06517601013184 L 9.361384391784668 22.06517601013184 L 15.32882499694824 28.03125190734863 L 15.32882499694824 7.101921081542969 M 15.69130706787109 4.570236206054688 C 16.52556610107422 4.570329666137695 17.32882499694824 5.213754653930664 17.32882499694824 6.196235656738281 L 17.32882499694824 28.93754577636719 C 17.32882499694824 30.38882637023926 15.5729341506958 31.10363388061523 14.55554389953613 30.08624649047852 L 8.53309440612793 24.06517601013184 L 1.624574661254883 24.06517601013184 C 0.7269935607910156 24.06517601013184 3.814697265625e-06 23.33750534057617 3.814697265625e-06 22.44060516357422 L 3.814697265625e-06 12.69316673278809 C 3.814697265625e-06 11.79559516906738 0.7269935607910156 11.06859588623047 1.624574661254883 11.06859588623047 L 8.53309440612793 11.06859588623047 L 14.55554389953613 5.046846389770508 C 14.88471603393555 4.717897415161133 15.29150199890137 4.570192337036133 15.69130706787109 4.570236206054688 Z" stroke="none" fill="rgba(20,28,38,0.87)"/></g><g transform="translate(95 1229.3)"><path d="M17.438,8.823,2.975.272A1.961,1.961,0,0,0,0,1.969v17.1a1.971,1.971,0,0,0,2.975,1.7l14.464-8.547A1.97,1.97,0,0,0,17.438,8.823Z" transform="translate(0 -0.002)" fill="rgba(20,28,38,0.87)"/></g></g></g></svg>