<svg xmlns="http://www.w3.org/2000/svg" width="1756.512" height="1364.23" viewBox="0 0 1756.512 1364.23"><g transform="translate(-81.744 -115)"><text transform="translate(90.256 115)" font-size="40" font-family="HelveticaNeue-Medium, Helvetica Neue" font-weight="500"><tspan x="0" y="38">Colors</tspan></text><g transform="translate(94.506 283.851)" fill="#fff" stroke="#000" stroke-width="1"><rect width="70" height="70" stroke="none"/><rect x="0.5" y="0.5" width="69" height="69" fill="none"/></g><g transform="translate(94.506 463.851)" fill="#ff4545" stroke="#000" stroke-width="1"><rect width="70" height="69" stroke="none"/><rect x="0.5" y="0.5" width="69" height="68" fill="none"/></g><g transform="translate(191.506 463.851)" fill="#b0b0b0" stroke="#000" stroke-width="1"><rect width="70" height="69" stroke="none"/><rect x="0.5" y="0.5" width="69" height="68" fill="none"/></g><g transform="translate(186.506 283.851)" stroke="#000" stroke-width="1"><rect width="68" height="70" stroke="none"/><rect x="0.5" y="0.5" width="67" height="69" fill="none"/></g><text transform="translate(94.506 237)" font-size="25" font-family="HelveticaNeue-Light, Helvetica Neue" font-weight="300"><tspan x="0" y="24">Primary</tspan></text><text transform="translate(94.506 409.851)" font-size="25" font-family="HelveticaNeue-Light, Helvetica Neue" font-weight="300"><tspan x="0" y="24">Secondary</tspan></text><text transform="translate(467.506 757)" font-size="40" font-family="HelveticaNeue-Medium, Helvetica Neue" font-weight="500"><tspan x="0" y="38">Typography</tspan></text><text transform="translate(468.5 939.383)" fill="#1e222d" font-size="20" font-family="HelveticaNeue, Helvetica Neue"><tspan x="0" y="19">Sed lacinia lectus eros, ut finibus eros viverra id. Nam ante augue, </tspan><tspan x="0" y="49">eleifend eu consequat ut, interdum ac est. Quisque luctus </tspan><tspan x="0" y="79">vulputate justo vitae blandit. Nulla ullamcorper laoreet porta. </tspan><tspan x="0" y="109">Donec ut dignissim ligula. Integer nec nisl ut massa imperdiet </tspan><tspan x="0" y="139">rhoncus. Nulla nisi erat, mollis nec lorem non, mattis finibus ante. </tspan><tspan x="0" y="169">Aenean in erat turpis. Suspendisse potenti.</tspan></text><text transform="translate(467.506 1232.383)" fill="#6d6d6d" font-size="41" font-family="HelveticaNeue-Bold, Helvetica Neue" font-weight="700"><tspan x="0" y="0">MEN WOMEN KIDS</tspan></text><text transform="translate(467.506 1367.447)" fill="#ff4545" font-size="38" font-family="HelveticaNeue-Medium, Helvetica Neue" font-weight="500"><tspan x="0" y="0">62%</tspan></text><text transform="translate(467.506 907.458)" font-size="15" font-family="HelveticaNeue, Helvetica Neue"><tspan x="0" y="0" xml:space="preserve">BODY COPY:   HELVETICA NEUE REGULAR   20PT</tspan></text><text transform="translate(467.506 1182.447)" font-size="15" font-family="HelveticaNeue, Helvetica Neue"><tspan x="0" y="0" xml:space="preserve">DOCUMENT TITLE:   ROBOTO SLAB   37PT</tspan></text><text transform="translate(467.506 1317.447)" font-size="15" font-family="HelveticaNeue, Helvetica Neue"><tspan x="0" y="0" xml:space="preserve">SPECIAL SUBHEAD:   ULTRA REGULAR   34 PT</tspan></text><text transform="translate(467.506 1430.469)" font-size="15" font-family="HelveticaNeue, Helvetica Neue"><tspan x="0" y="0" xml:space="preserve">DOCUMENT TITLE:   ROBOTO SLAB   25PT</tspan></text><text transform="translate(467.506 1472.469)" fill="#6d6d6d" font-size="25" font-family="HelveticaNeue-Medium, Helvetica Neue" font-weight="500"><tspan x="0" y="0">LIVE CHAT</tspan></text><text transform="translate(90.256 757)" font-size="40" font-family="HelveticaNeue-Medium, Helvetica Neue" font-weight="500"><tspan x="0" y="38">Icons</tspan></text><path d="M2311.128-825.477c5.444,0,10.888-.016,16.331.019a1.08,1.08,0,0,0,1.229-.9q4.983-15.444,10.027-30.868a3.422,3.422,0,0,1,1.062-1.624,2.1,2.1,0,0,1,3.25,1.257c1.291,3.917,2.559,7.841,3.833,11.763q3.164,9.742,6.311,19.49a1.078,1.078,0,0,0,1.241.884q16.251-.041,32.5-.018c1.719,0,2.689.871,2.6,2.327a2.308,2.308,0,0,1-1.1,1.774q-7.063,5.122-14.12,10.253c-4.164,3.025-8.322,6.058-12.5,9.064a.828.828,0,0,0-.355,1.122q5.089,15.578,10.138,31.169c.591,1.819-.42,3.362-2.129,3.187a2.855,2.855,0,0,1-1.309-.535q-13.058-9.456-26.091-18.947c-1.128-.82-1.119-.821-2.265.011q-12.977,9.432-25.957,18.859a2.265,2.265,0,0,1-2.884.222,2.282,2.282,0,0,1-.664-2.814q4.989-15.357,10-30.706a1.33,1.33,0,0,0-.561-1.825q-13.146-9.472-26.239-19.018a2.3,2.3,0,0,1-1.127-2.316,1.93,1.93,0,0,1,1.339-1.661,4.146,4.146,0,0,1,1.262-.159Q2303.042-825.486,2311.128-825.477Zm-12.711,3.342-.034.177c.214.16.425.323.641.48q11.937,8.674,23.874,17.347a2.336,2.336,0,0,1,1.043,3.177q-4.568,14.057-9.134,28.114c-.082.253-.151.511-.29.981.41-.289.6-.423.8-.562q11.808-8.578,23.614-17.159c1.754-1.275,2.243-1.278,4,0q11.806,8.581,23.613,17.159c.2.148.42.279.781.518-.125-.427-.191-.678-.271-.924q-4.578-14.1-9.157-28.19a2.3,2.3,0,0,1,1-3.056q11.419-8.292,22.837-16.586c.593-.431,1.179-.872,1.769-1.309l-.052-.158h-.857l-29.364,0c-1.771,0-2.305-.384-2.859-2.087q-4.545-13.979-9.086-27.96c-.084-.259-.182-.514-.344-.97-.17.475-.263.718-.344.966q-4.558,14.018-9.114,28.036c-.531,1.631-1.083,2.017-2.828,2.016l-29.043,0Z" transform="matrix(0.799, -0.602, 0.602, 0.799, -1231.878, 3085.803)"/><path d="M2370.759-548.3q-.608-13.443-1.178-26.889-.45-10.44-.884-20.881c-.275-6.451-.569-12.9-.816-19.353-.03-.785-.394-.856-1.019-.854-5.2.015-10.393.008-15.59.008h-1.317c-.021-.436-.046-.8-.052-1.155-.038-2.344.041-4.7-.127-7.031a13.247,13.247,0,0,0-13.323-12.164,13.245,13.245,0,0,0-13.183,12.425c-.126,2.237-.067,4.484-.091,6.727,0,.363,0,.726,0,1.2h-1.339c-4.857,0-9.714.018-14.571-.018-.8-.006-1.037.249-1.078,1.029q-.811,15.064-1.677,30.126-.963,16.74-1.963,33.479c-.2,3.488-.378,6.977-.571,10.575.411.023.771.061,1.131.061q33.473,0,66.946,0c.371,0,.743-.052,1.114-.08v-.612C2371.03-543.907,2370.858-546.1,2370.759-548.3Zm-44.444-75.988a9.725,9.725,0,0,1,6.334-8.529,9.663,9.663,0,0,1,10.244,1.47,9.581,9.581,0,0,1,3.887,7.312c.109,2.535.022,5.078.022,7.711h-20.475a1.83,1.83,0,0,1-.115-.426C2326.231-619.263,2326.1-621.789,2326.315-624.287Zm-20.666,79.4,3.259-68.163h55.942l3.259,67.891Z" transform="translate(-2215.377 1754.911)"/><path d="M2755.529-536.178v.612c-.371.028-.743.08-1.114.08q-33.473.006-66.946,0c-.36,0-.72-.038-1.131-.061.193-3.6.368-7.087.571-10.575q.974-16.74,1.962-33.478.867-15.062,1.677-30.126c.042-.78.278-1.035,1.078-1.029,4.857.035,9.714.018,14.571.018h1.339c0-.472,0-.835,0-1.2.024-2.243-.035-4.49.091-6.727a13.246,13.246,0,0,1,13.183-12.425,13.247,13.247,0,0,1,13.323,12.164c.167,2.334.089,4.687.126,7.031.006.36.032.72.052,1.156h1.318c5.2,0,10.394.006,15.59-.008.625,0,.989.069,1.019.854.248,6.452.541,12.9.816,19.353q.445,10.441.884,20.881.579,13.445,1.178,26.889C2755.218-540.569,2755.39-538.374,2755.529-536.178Zm-24.366-74.612c0-2.633.086-5.177-.023-7.711a9.58,9.58,0,0,0-3.887-7.312,9.663,9.663,0,0,0-10.244-1.47,9.725,9.725,0,0,0-6.333,8.529c-.211,2.5-.084,5.025-.1,7.539a1.8,1.8,0,0,0,.115.426Z" transform="translate(-2522.634 1749.377)"/><circle cx="18.5" cy="18.5" r="18.5" transform="translate(214.704 1117.999)" fill="#ff4545"/><text transform="translate(227.704 1122.999)" fill="#fff" font-size="20" font-family="HelveticaNeue-Medium, Helvetica Neue" font-weight="500"><tspan x="0" y="19">1</tspan></text><g transform="translate(-2807.258 1480.717)"><g transform="translate(3086.303 -350.575)"><g transform="translate(0 0)"><rect width="33.913" height="96.24" transform="translate(8.203)" fill="rgba(26,24,24,0)"/><path d="M3167.694-186.481h49.162c.318,0,.576.369.576.824l-.005,3.26c0,.455-.258.824-.576.824h-49.162c-.318,0-.576-.369-.576-.824l.005-3.26C3167.118-186.112,3167.376-186.481,3167.694-186.481Z" transform="translate(-3167.113 229.582)" fill="#1a1818"/></g></g><path d="M3169.463-127.445h49.162c.318,0,.576.369.576.823l-.005,3.26c0,.455-.258.824-.576.824h-49.162c-.318,0-.576-.369-.576-.824l.005-3.26C3168.887-127.076,3169.145-127.445,3169.463-127.445Z" transform="translate(-82.579 -164.522)" fill="#1a1818"/><path d="M3167.108-247.577h49.161c.318,0,.576.369.576.823l-.005,3.26c0,.455-.258.824-.576.824H3167.1c-.318,0-.576-.369-.576-.824l.005-3.26C3166.532-247.208,3166.79-247.577,3167.108-247.577Z" transform="translate(-80.224 -75.944)" fill="#1a1818"/></g><path d="M3198.426-1022.683a33.46,33.46,0,0,1,2.942-3.03q-6.672-6.688-13.359-13.36c-1.883-1.878-3.781-3.739-5.69-5.624a30.872,30.872,0,0,0,4.982-11.344c3.463-16.048-7.867-32.636-24.073-35.192-16.311-2.574-30.917,7.409-34.366,23.495-.212.99-.371,1.994-.555,2.99v5.692c.373,1.773.648,3.575,1.132,5.317a29.774,29.774,0,0,0,25.188,21.4c7.432.852,16.055-1.945,22.133-6.306.212.431,1.265,1.142,1.568,1.514,5.7,5.731,11.746,11.83,17.536,17.548C3196.7-1020.624,3197.546-1021.67,3198.426-1022.683Zm-40.419-14.6a24.712,24.712,0,0,1-24.72-24.7,24.712,24.712,0,0,1,24.7-24.72h0a24.8,24.8,0,0,1,24.72,24.7v0A24.713,24.713,0,0,1,3158.006-1037.28Z" transform="translate(-3015.15 1966.093)" fill="#030504"/><g transform="translate(-3637.164 2285.28)"><path d="M3961.586-834.1h-4.457c-.023,2.183.007,4.366-.018,6.549a18.784,18.784,0,0,1-.178,2.486,15.751,15.751,0,0,1-15.627,13.429,15.75,15.75,0,0,1-15.7-15.8c-.017-2.257.02-4.515-.02-6.772h-4.44c-.015,2.808-.126,5.629.112,8.419.642,7.533,4.466,13.008,11.176,16.463a20.189,20.189,0,0,0,6.714,1.95v.721c0,3.559.033,7.12-.017,10.678h4.461c-.052-3.558-.017-7.117-.017-10.676v-.729A19.932,19.932,0,0,0,3954.257-812a19.445,19.445,0,0,0,7.219-13.876C3961.663-828.608,3961.578-831.357,3961.586-834.1Z" transform="translate(0 -147.347)" fill="#030504"/><path d="M4001.146-987.642c0,4.116.021,8.231-.006,12.347-.035,5.345-2.913,9.624-7.4,10.849a10.181,10.181,0,0,1-8.024-.762,10.826,10.826,0,0,1-5.549-9.9c-.06-8.417-.032-16.834,0-25.251a13.287,13.287,0,0,1,.4-3.139c1.2-4.639,4.973-7.845,9.281-7.883a11.73,11.73,0,0,1,5.1.773,11.091,11.091,0,0,1,6.191,10.478C4001.162-995.967,4001.146-991.8,4001.146-987.642Zm-2.588-.005c0-4.584.016-9.167-.005-13.75a6.844,6.844,0,0,0-5.4-6.863,14.179,14.179,0,0,0-3.58-.232,6.98,6.98,0,0,0-6.84,6.828q-.056,13.938,0,27.876a6.9,6.9,0,0,0,4.749,6.473,10.426,10.426,0,0,0,5.564.2,6.859,6.859,0,0,0,5.5-6.86c.029-4.56,0-9.118.006-13.677Z" transform="translate(-49.078 0)" fill="#030504"/></g><path d="M3921.991,230.928c-.353-.366-.678-.758-1.2-1.344h104.683v-4.928H3920.742c.637-.685,1.021-1.111,1.419-1.525q8.634-8.967,17.27-17.932a49.532,49.532,0,0,1-3.407-3.606q-11.83,12.229-23.622,24.5c-.307.319-.581.668-.927,1.068.458.49.851.922,1.255,1.342q10.274,10.671,20.551,21.338c1.122,1.165,2.228,2.348,3.386,3.476q.482-.52.95-1.052c.78-.884,1.554-1.786,2.389-2.624-.133-.139-.269-.277-.4-.415Q3930.8,240.074,3921.991,230.928Z" transform="translate(-3812.683 1080.146)"/><path d="M3834.743,564.2h4.431v18.088h18.09v4.569h-18v18.037h-4.512V586.931h-18.041v-4.609h18.031Z" transform="translate(-3723.83 865.086)"/><path d="M3815.728,838.437c-.63-4.164-.6-4.205,3.442-4.205,10.6,0,21.194.014,31.791-.022,1.021,0,1.428.253,1.316,1.309-.1.966-.085,1.945-.121,2.918Z" transform="translate(-3639.503 613.309)"/><g transform="translate(-3775.193 1546.863)"><path d="M4040.813-97.716c.719-.773,3.31-3.409,3.759-3.874q9.738-10.114,19.477-20.225a55.888,55.888,0,0,1-3.843-4.067q-13.343,13.793-26.643,27.627c-.346.36-.655.754-1.045,1.205.516.553.959,1.04,1.416,1.514q11.587,12.035,23.178,24.066c1.266,1.314,2.513,2.648,3.819,3.921q.543-.586,1.071-1.186c.879-1,1.754-2.014,2.694-2.959-.15-.157-.3-.312-.453-.468q-9.932-10.316-19.864-20.631c-.4-.413-3.405-3.664-3.993-4.324" transform="translate(0 -0.084)"/><path d="M4255.6-97.837c-.719-.773-3.31-3.409-3.758-3.874q-9.738-10.113-19.478-20.225A55.737,55.737,0,0,0,4236.21-126q13.343,13.793,26.643,27.627c.346.359.655.753,1.045,1.2-.516.553-.959,1.04-1.415,1.514q-11.588,12.035-23.178,24.066c-1.266,1.314-2.513,2.648-3.819,3.921q-.543-.586-1.071-1.186c-.88-1-1.753-2.014-2.695-2.959.15-.157.3-.312.454-.468q9.932-10.316,19.863-20.631c.4-.413,3.406-3.664,3.993-4.324" transform="translate(-137.621 0)"/></g><path d="M4755.92-658.249q.111-13.934.223-27.869a10.329,10.329,0,0,1,10.808-10.643q23.542.158,47.083.376c6.379.06,10.754,4.539,10.709,10.892q-.117,16.281-.254,32.563c-.056,6.879-4.466,11.2-11.391,11.152-12.224-.089-24.447-.149-36.669-.308a11.9,11.9,0,0,0-9.868,4.514c-2.531,3.044-5.146,6.019-7.733,9.017-.565.655-1.074,1.5-2.162,1.113-1.173-.414-.976-1.437-.969-2.351Q4755.8-644.021,4755.92-658.249Zm2.649,25.066.318.16c1.869-2.172,3.758-4.328,5.6-6.52a14.579,14.579,0,0,1,11.967-5.412c12.37.155,24.74.223,37.11.305,4.809.032,8-3.136,8.044-7.957q.144-16.428.257-32.856c.031-4.886-3.145-8.079-8.034-8.118q-23.029-.183-46.058-.361c-5.782-.045-8.754,2.89-8.8,8.7q-.2,25.083-.394,50.165Z" transform="translate(-4486.024 1571.219)"/><g transform="translate(91.704 736.26)"><path d="M2363.066-558.179q-.542-11.939-1.047-23.881-.4-9.272-.784-18.545c-.244-5.73-.506-11.458-.726-17.189-.027-.7-.351-.76-.906-.759-4.615.013-9.229.008-13.845.007h-1.17c-.018-.387-.041-.706-.047-1.026-.034-2.082.037-4.171-.112-6.244a11.766,11.766,0,0,0-11.833-10.8,11.763,11.763,0,0,0-11.708,11.035c-.112,1.987-.061,3.983-.08,5.974,0,.322,0,.645,0,1.064h-1.19c-4.313,0-8.627.016-12.941-.015-.71,0-.919.221-.956.914q-.721,13.379-1.49,26.756-.855,14.867-1.743,29.733c-.181,3.1-.336,6.2-.508,9.392.365.02.685.053,1,.053q29.729,0,59.458,0c.33,0,.659-.046.989-.071v-.543C2363.306-554.278,2363.154-556.227,2363.066-558.179Zm-39.473-67.488a8.635,8.635,0,0,1,5.626-7.575,8.581,8.581,0,0,1,9.1,1.306,8.507,8.507,0,0,1,3.452,6.494c.1,2.251.021,4.51.021,6.849H2323.6a1.593,1.593,0,0,1-.1-.378C2323.518-621.2,2323.407-623.448,2323.593-625.667ZM2305.24-555.15l2.893-60.539h49.686l2.895,60.3Z" transform="translate(-2121.001 885.691)" stroke="#000" stroke-width="1"/><text transform="translate(149 257)" font-size="60" font-family="HelveticaNeue-Bold, Helvetica Neue" font-weight="700"><tspan x="-18" y="59">+</tspan></text></g><text transform="translate(467.506 115)" font-size="40" font-family="HelveticaNeue-Medium, Helvetica Neue" font-weight="500"><tspan x="0" y="38">Fonts</tspan></text><text transform="translate(467.506 237)" font-size="30" font-family="HelveticaNeue, Helvetica Neue"><tspan x="0" y="29">AaBbCc</tspan><tspan x="0" y="72">Helvetica Neue Regular</tspan><tspan x="0" y="115">ABCDEFGHIJKLMNOPQRSTUVWXYZ</tspan><tspan x="0" y="158">abcdefghijklmnopqrstuvwxyz</tspan><tspan x="0" y="201">0123456789</tspan><tspan x="0" y="244">~%!@#$%^&amp;*-_=+</tspan><tspan x="0" y="287" xml:space="preserve"> []{}()|\/&lt;&gt;‘’”,.;:?</tspan></text><text transform="translate(1139.256 237)" font-size="30" font-family="HelveticaNeue-Bold, Helvetica Neue" font-weight="700"><tspan x="0" y="29">AaBbCc</tspan><tspan x="0" y="72">Helvetica Neue Bold</tspan><tspan x="0" y="115">ABCDEFGHIJKLMNOPQRSTUVWXYZ</tspan><tspan x="0" y="158">abcdefghijklmnopqrstuvwxyz</tspan><tspan x="0" y="201">0123456789</tspan><tspan x="0" y="244">~%!@#$%^&amp;*-_=+</tspan><tspan x="0" y="287" xml:space="preserve"> []{}()|\/&lt;&gt;‘’”,.;:?</tspan></text><text transform="translate(1139.256 757)" font-size="40" font-family="HelveticaNeue-Medium, Helvetica Neue" font-weight="500"><tspan x="0" y="38">Color</tspan></text><text transform="translate(1139.256 866.112)" font-size="40" font-family="HelveticaNeue, Helvetica Neue"><tspan x="0.9" y="38">Emotion</tspan></text><text transform="translate(1140.256 1197.98)" font-size="40" font-family="HelveticaNeue, Helvetica Neue"><tspan x="0.56" y="38">Style</tspan></text><rect width="180" height="180" transform="translate(1140.256 940.98)" fill="#ff4545"/><rect width="180" height="180" transform="translate(1140.256 1287.98)"/><g transform="translate(1397.256 1289.98)" fill="none" stroke="#000" stroke-width="1"><rect width="180" height="180" stroke="none"/><rect x="0.5" y="0.5" width="179" height="179" fill="none"/></g><rect width="180" height="180" transform="translate(1658.256 1289.98)" fill="#aeaeae"/><text transform="translate(1170.256 1012.979)" fill="#fff" font-size="30" font-family="HelveticaNeue-Medium, Helvetica Neue" font-weight="500"><tspan x="0.51" y="29">#FF4545</tspan></text><text transform="translate(1230.256 1388.98)" fill="#fff" font-size="30" font-family="HelveticaNeue-Medium, Helvetica Neue" font-weight="500"><tspan x="-58.38" y="0">#000000</tspan></text><text transform="translate(1748.256 1388.98)" fill="#fff" font-size="30" font-family="HelveticaNeue-Medium, Helvetica Neue" font-weight="500"><tspan x="-66.705" y="0">#AEAEAE</tspan></text><text transform="translate(1425.256 1361.98)" font-size="30" font-family="HelveticaNeue-Medium, Helvetica Neue" font-weight="500"><tspan x="0.29" y="29">#FFFFFF</tspan></text></g></svg>