<svg xmlns="http://www.w3.org/2000/svg" viewBox="0 0 451.03 59.5"><g id="图层_2" data-name="图层 2"><g id="图层_1-2" data-name="图层 1"><path d="M63.27,58.61H45.51L42.4,47.36H20.2L16.72,58.61H0L19,.89H44.77ZM38.56,34.78,31.67,13.47h-.44l-7,21.31Z"/><path d="M102.2.89c12.5,0,16.28,3,16.28,15,0,8.29-3.56,12.51-10.66,13.54,8.58.89,12.73,5.26,12.73,14,0,12.14-4.22,15.17-18.35,15.17H67.34V.89ZM96,23.39c4.44,0,6.29-1.56,6.29-5.26,0-4.88-.59-5.4-6.29-5.4H82.88V23.39Zm1.48,23.38c6.22,0,6.88-.59,6.88-5.7,0-4.07-2.07-5.84-6.88-5.84H82.88V46.77Z"/><path d="M155.7,0c24,0,30,5.92,30,29.75s-6,29.75-30,29.75-30-5.92-30-29.75S131.72,0,155.7,0ZM142,29.75c0,15.47,1.33,17.17,13.69,17.17s13.69-1.7,13.69-17.17-1.34-17.17-13.69-17.17S142,14.28,142,29.75Z"/><path d="M216.45,59.5c-20.5,0-25.61-4.88-25.61-24.57V.89h15.54v34c0,10.81,1,12,10.07,12s10.06-1.18,10.06-12V.89h15.55v34C242.06,54.62,237,59.5,216.45,59.5Z"/><path d="M263.07,14.21H245.38V.89h51.06V14.21H278.61v44.4H263.07Z"/><path d="M322.71,58.61V.89h28.12l8.66,42.92h.59L368.82.89h27.3V58.61H380.58V15.69h-.44l-8.73,42.92H347.35L338.7,15.69h-.45V58.61Z"/><path d="M450.88.89V14.21H419.06v8.88h28.86V35.67H419.06v9.62h32V58.61H403.52V.89Z"/></g></g></svg>