<?xml version="1.0" standalone="no"?><!DOCTYPE svg PUBLIC "-//W3C//DTD SVG 1.1//EN" "http://www.w3.org/Graphics/SVG/1.1/DTD/svg11.dtd"><svg t="1640059867167" class="icon" viewBox="0 0 1050 1024" version="1.1" xmlns="http://www.w3.org/2000/svg" p-id="10483" xmlns:xlink="http://www.w3.org/1999/xlink" width="205.078125" height="200"><defs><style type="text/css"></style></defs><path d="M0 0m185.982906 0l678.290598 0q185.982906 0 185.982906 185.982906l0 652.034188q0 185.982906-185.982906 185.982906l-678.290598 0q-185.982906 0-185.982906-185.982906l0-652.034188q0-185.982906 185.982906-185.982906Z" fill="#470137" p-id="10484"></path><path d="M552.115419 269.294496l-131.045744 216.295931 140.204855 229.682325a7.229265 7.229265 0 0 1 0.700171 5.286291c-0.468239 1.649778-2.109265 0.61265-4.927453 1.072136h-100.045675c-7.04547 0-11.977299-0.249436-14.795488-4.944957q-14.104068-27.481709-28.18188-54.604581-14.104068-27.11412-29.94106-55.309128-15.854496-28.168752-31.35453-57.063932h-0.704547q-14.104068 28.18188-29.240889 56.363761-15.154325 28.18188-29.941059 56.009299-14.791111 27.840547-30.295522 55.304752c-1.881709 4.227282-5.176889 4.664889-9.863658 4.664889H156.16c-1.872957 0-2.931966 0.743932-3.17265-1.137778a7.076103 7.076103 0 0 1 1.059009-4.936205l135.977573-223.341402-132.454838-224.045948q-2.113641-2.80506-0.704547-4.577368a5.133128 5.133128 0 0 1 4.227282-1.763555h99.336752a14.707966 14.707966 0 0 1 6.345299 1.059008 12.760615 12.760615 0 0 1 4.227282 3.872821q12.681846 28.186256 28.181881 56.36376 15.491282 28.190632 31.350154 55.66359 15.854496 27.472957 29.240888 55.654838h0.704547q14.082188-28.882051 28.531966-56.363761 14.43665-27.477333 29.590975-55.304752 15.141197-27.823043 29.240889-55.309128a10.843897 10.843897 0 0 1 2.818188-4.577368 10.222496 10.222496 0 0 1 5.636376-1.059008h92.291282a4.039111 4.039111 0 0 1 3.527111 7.04547zM754.311658 730.772786a218.287043 218.287043 0 0 1-94.059214-19.727316 149.539009 149.539009 0 0 1-65.872957-59.532034q-23.958974-39.795966-23.954598-99.69559a183.974291 183.974291 0 0 1 23.954598-92.291282 175.86106 175.86106 0 0 1 69.75453-67.640889q45.786803-25.363692 110.609504-25.363692 3.518359 0 9.159111 0.350085 5.632 0.36759 13.386394 1.059009V229.135316c0-3.282051 1.409094-4.931829 4.227282-4.931829h88.772923a3.737162 3.737162 0 0 1 4.227282 4.227282v416.387282q0 11.990427 1.054632 26.06824 1.059009 14.104068 1.763556 25.363692a7.281778 7.281778 0 0 1-4.227282 7.04547 349.472821 349.472821 0 0 1-71.154872 21.13641 382.030769 382.030769 0 0 1-67.640889 6.345299z m42.972992-87.363829v-192.341333a69.885812 69.885812 0 0 0-11.618462-2.113641 140.515556 140.515556 0 0 0-14.445402-0.700171 108.78906 108.78906 0 0 0-49.31829 11.268376 96.295385 96.295385 0 0 0-36.98653 32.409162q-14.449778 21.13641-14.445402 55.66359a124.240957 124.240957 0 0 0 7.395556 45.086633 85.718427 85.718427 0 0 0 19.731692 31.000068 75.123966 75.123966 0 0 0 29.586598 17.613675 115.922051 115.922051 0 0 0 36.286359 5.636376q9.859282 0 18.318222-0.700171a75.404034 75.404034 0 0 0 15.500035-2.822564z" fill="#FF61F6" p-id="10485"></path></svg>